<?xml version="1.0" encoding="UTF-8" standalone="no"?>
<!-- Created with Inkscape (http://www.inkscape.org/) -->

<svg
   xmlns:dc="http://purl.org/dc/elements/1.1/"
   xmlns:cc="http://creativecommons.org/ns#"
   xmlns:rdf="http://www.w3.org/1999/02/22-rdf-syntax-ns#"
   xmlns:svg="http://www.w3.org/2000/svg"
   xmlns="http://www.w3.org/2000/svg"
   xmlns:sodipodi="http://sodipodi.sourceforge.net/DTD/sodipodi-0.dtd"
   xmlns:inkscape="http://www.inkscape.org/namespaces/inkscape"
   width="7.8000002cm"
   height="7.8000002cm"
   viewBox="0 0 7.7999997 7.8000002"
   version="1.1"
   id="svg8"
   inkscape:version="0.92.2 (30a58d1, 2017-08-07)"
   sodipodi:docname="basel_hand.svg">
  <defs
     id="defs2" />
  <sodipodi:namedview
     id="base"
     pagecolor="#ffffff"
     bordercolor="#666666"
     borderopacity="1.0"
     inkscape:pageopacity="0"
     inkscape:pageshadow="2"
     inkscape:zoom="0.70710678"
     inkscape:cx="181.29025"
     inkscape:cy="40.709949"
     inkscape:document-units="cm"
     inkscape:current-layer="g1752"
     showgrid="true"
     scale-x="1"
     showguides="true"
     borderlayer="false"
     showborder="true"
     inkscape:showpageshadow="true"
     inkscape:window-width="3066"
     inkscape:window-height="1689"
     inkscape:window-x="134"
     inkscape:window-y="55"
     inkscape:window-maximized="1"
     units="cm" />
  <metadata
     id="metadata5">
    <rdf:RDF>
      <cc:Work
         rdf:about="">
        <dc:format>image/svg+xml</dc:format>
        <dc:type
           rdf:resource="http://purl.org/dc/dcmitype/StillImage" />
        <dc:title></dc:title>
      </cc:Work>
    </rdf:RDF>
  </metadata>
  <g
     inkscape:label="Ebene 1"
     inkscape:groupmode="layer"
     id="layer1"
     transform="translate(0,-282.18)">
    <g
       id="g1752"
       transform="translate(15.998472,-16.069027)">
      <path
         style="fill:#0e0e0e;fill-opacity:1;stroke-width:0.01398552"
         d="m -14.879407,304.38718 -0.828649,-0.82874 0.248441,-0.24815 0.248441,-0.24816 0.08025,0.0802 0.08024,0.0802 -0.163972,0.16441 -0.163972,0.16439 0.07886,0.0805 c 0.04337,0.0443 0.341683,0.34682 0.662917,0.67227 l 0.584061,0.59175 0.16211,-0.1617 c 0.08916,-0.0889 0.168523,-0.16168 0.176363,-0.16168 0.0078,0 0.04851,0.0347 0.09038,0.0771 l 0.07613,0.0771 -0.244281,0.24458 c -0.134356,0.13452 -0.247517,0.24458 -0.251469,0.24458 -0.004,0 -0.380078,-0.37293 -0.835835,-0.82874 z m 1.419463,0.42653 -0.08,-0.0809 0.248405,-0.24813 0.248403,-0.2481 0.08,0.0809 0.08,0.0809 -0.248404,0.24812 -0.248404,0.24811 z m 0.662333,-0.33553 c -0.03899,-0.0442 -0.07097,-0.0836 -0.07106,-0.0874 -9.8e-5,-0.004 0.07061,-0.0762 0.157139,-0.1608 0.08652,-0.0847 0.347734,-0.34253 0.580463,-0.57319 l 0.423146,-0.41936 0.08447,0.0844 0.08447,0.0844 -0.586594,0.57612 c -0.322626,0.31686 -0.589867,0.57612 -0.593869,0.57612 -0.004,0 -0.03918,-0.0362 -0.07817,-0.0804 z m 1.886688,-1.40904 v -0.35663 h 0.111884 0.111884 v -0.23076 -0.23076 h 0.118877 0.118877 v -0.36363 -0.36362 h 0.118877 0.118877 v -0.11188 -0.11189 h -0.118877 -0.118877 v -0.11888 -0.11887 h -0.118877 -0.118877 v -0.11888 -0.11887 h 0.118877 0.118877 v -0.11189 -0.11188 h 0.118877 0.118877 v -0.47551 -0.47551 h -0.349638 -0.349638 v 0.23776 0.23775 h 0.111884 0.111884 v -0.11887 -0.11888 h 0.118877 0.118877 v 0.23075 0.23077 h -0.118877 -0.118877 v 0.12587 0.12587 h -0.23076 -0.230761 v -0.12587 -0.12587 h -0.118878 -0.118877 v -0.46851 -0.46853 h 0.118877 0.118878 v -0.11887 -0.11887 h 0.118877 0.118876 v -0.11888 -0.11888 h 0.587392 0.5873907 v 0.11888 0.11888 h 0.1118851 0.111884 v 0.11887 0.11887 h 0.1258694 0.1258694 v 0.5944 0.59438 h 0.111884 0.111884 v 0.11188 0.11189 h 0.1258694 0.1258694 v 0.11887 0.11888 H -8.910995 -9.0368644 v 0.11887 0.11888 h -0.111884 -0.111884 v 0.11189 0.11188 h 0.111884 0.111884 v 0.36362 0.36363 h 0.1258694 0.1258694 v 0.23076 0.23076 h 0.1118851 0.111884 v 0.35663 0.35663 h -0.111884 -0.1118851 v -0.11887 -0.11888 H -8.910995 -9.0368644 v -0.11888 -0.11888 h -0.111884 -0.111884 v 0.11888 0.11888 h -0.1608339 -0.1608328 v 0.11888 0.11887 h -0.1188767 -0.1188767 v -0.11887 -0.11888 h -0.1957975 -0.195797 v -0.11888 -0.11888 h -0.118877 -0.118877 v 0.11888 0.11888 h -0.118877 -0.118877 v 0.11888 0.11887 h -0.111884 -0.111884 z m -0.878069,0.0869 c -0.04012,-0.0407 -0.07294,-0.0802 -0.07294,-0.0879 0,-0.008 0.03462,-0.0482 0.07694,-0.09 l 0.07694,-0.076 0.08391,0.083 0.08391,0.083 -0.08,0.0809 c -0.044,0.0444 -0.08355,0.0809 -0.0879,0.0809 -0.0043,0 -0.04073,-0.0333 -0.08085,-0.0738 z m -0.499829,-0.17872 -0.08358,-0.085 0.251739,-0.24305 0.251739,-0.24306 0.16437,0.16342 0.164369,0.1634 -0.0838,0.0838 -0.0838,0.0838 -0.08417,-0.0833 -0.08417,-0.0833 -0.164544,0.16411 -0.164545,0.16411 z m -3.004136,-0.0108 -0.07916,-0.08 0.167772,-0.16733 0.167773,-0.16733 0.08471,0.0847 0.08471,0.0847 -0.173328,0.16262 -0.173327,0.16262 z m 0.167603,-0.50371 -0.08083,-0.0817 0.170991,-0.16381 0.170989,-0.16382 -0.08247,-0.0834 -0.08247,-0.0834 0.163889,-0.16389 0.163891,-0.16389 0.08421,0.0834 0.08421,0.0834 -0.163643,0.16407 -0.163643,0.16406 0.02671,0.0321 c 0.01469,0.0177 0.04875,0.0557 0.07567,0.0848 l 0.04896,0.0527 -0.16016,0.16061 c -0.08808,0.0883 -0.163607,0.16062 -0.167819,0.16062 -0.0042,0 -0.04403,-0.0367 -0.08849,-0.0817 z m 2.504545,-0.15242 -0.08027,-0.0803 0.24712,-0.24741 0.24712,-0.2474 -0.09911,-0.10937 c -0.0545,-0.0602 -0.127556,-0.13705 -0.162334,-0.17088 l -0.06323,-0.0615 -0.253101,0.24966 -0.253103,0.24965 -0.07992,-0.0805 -0.07992,-0.0805 0.669191,-0.66524 0.66919,-0.66522 0.0827,0.0818 0.0827,0.0818 -0.335805,0.33601 -0.335804,0.33601 0.164058,0.16406 0.164057,0.16406 -0.08337,0.0842 -0.08337,0.0842 0.251134,0.25143 0.251134,0.25142 -0.07613,0.0771 c -0.04187,0.0424 -0.08285,0.0771 -0.09104,0.0771 -0.0082,0 -0.08666,-0.0727 -0.174355,-0.16155 l -0.159441,-0.16157 -0.161984,0.16157 c -0.08909,0.0889 -0.165104,0.16155 -0.168919,0.16155 -0.0038,0 -0.04305,-0.0361 -0.0872,-0.0802 z m -1.834794,-0.17081 -0.08073,-0.0816 0.25395,-0.24873 0.25395,-0.24873 -0.08457,-0.0853 -0.08457,-0.0853 0.08394,-0.083 0.08394,-0.083 0.08355,0.0827 c 0.04595,0.0455 0.08843,0.0777 0.0944,0.0715 0.006,-0.007 0.343667,-0.34144 0.750436,-0.74516 l 0.739581,-0.73404 0.08232,0.0815 0.08233,0.0815 -0.840344,0.83932 c -0.46219,0.46163 -0.952193,0.94751 -1.088896,1.07973 l -0.248551,0.24041 z m -0.326288,-0.66192 c -0.04012,-0.0406 -0.07295,-0.0802 -0.07295,-0.0879 0,-0.008 0.03462,-0.0482 0.07694,-0.09 l 0.07694,-0.076 0.08391,0.083 0.08391,0.083 -0.08,0.0809 c -0.044,0.0444 -0.08355,0.0809 -0.0879,0.0809 -0.0043,0 -0.04074,-0.0333 -0.08085,-0.0738 z m 0,-0.33565 c -0.04012,-0.0406 -0.07295,-0.0808 -0.07295,-0.0891 0,-0.009 0.11131,-0.12341 0.247357,-0.25553 l 0.247358,-0.24025 0.249131,0.24884 0.249131,0.24884 -0.08388,0.0839 -0.08388,0.0839 -0.167866,-0.16743 -0.167865,-0.16743 -0.16454,0.16411 c -0.0905,0.0903 -0.167807,0.16411 -0.171801,0.16411 -0.004,0 -0.04008,-0.0333 -0.0802,-0.0738 z m 2.756987,-0.91342 c -0.08344,-0.0892 -0.151708,-0.16688 -0.151708,-0.17266 0,-0.005 0.03509,-0.0426 0.07797,-0.0817 l 0.07797,-0.0712 0.163396,0.16382 0.163394,0.16382 -0.08094,0.0801 c -0.04452,0.044 -0.08486,0.0801 -0.08965,0.0801 -0.0048,0 -0.07698,-0.073 -0.160429,-0.16215 z"
         id="path1754"
         inkscape:connector-curvature="0" />
    </g>
  </g>
</svg>
