<?xml version="1.0" encoding="UTF-8" standalone="no"?>
<!-- Created with Inkscape (http://www.inkscape.org/) -->

<svg
   xmlns:dc="http://purl.org/dc/elements/1.1/"
   xmlns:cc="http://creativecommons.org/ns#"
   xmlns:rdf="http://www.w3.org/1999/02/22-rdf-syntax-ns#"
   xmlns:svg="http://www.w3.org/2000/svg"
   xmlns="http://www.w3.org/2000/svg"
   xmlns:sodipodi="http://sodipodi.sourceforge.net/DTD/sodipodi-0.dtd"
   xmlns:inkscape="http://www.inkscape.org/namespaces/inkscape"
   width="297mm"
   height="420mm"
   viewBox="0 0 29.699998 42"
   version="1.1"
   id="svg8"
   inkscape:version="0.92.3 (2405546, 2018-03-11)"
   sodipodi:docname="bulb.svg">
  <defs
     id="defs2" />
  <sodipodi:namedview
     id="base"
     pagecolor="#ffffff"
     bordercolor="#666666"
     borderopacity="1.0"
     inkscape:pageopacity="0"
     inkscape:pageshadow="2"
     inkscape:zoom="0.25"
     inkscape:cx="297.97984"
     inkscape:cy="-440.60898"
     inkscape:document-units="cm"
     inkscape:current-layer="layer1"
     showgrid="true"
     scale-x="1"
     showguides="true"
     borderlayer="false"
     showborder="true"
     inkscape:showpageshadow="true"
     inkscape:window-width="1718"
     inkscape:window-height="1368"
     inkscape:window-x="1713"
     inkscape:window-y="0"
     inkscape:window-maximized="0"
     units="mm" />
  <metadata
     id="metadata5">
    <rdf:RDF>
      <cc:Work
         rdf:about="">
        <dc:format>image/svg+xml</dc:format>
        <dc:type
           rdf:resource="http://purl.org/dc/dcmitype/StillImage" />
        <dc:title></dc:title>
      </cc:Work>
    </rdf:RDF>
  </metadata>
  <g
     inkscape:label="Ebene 1"
     inkscape:groupmode="layer"
     id="layer1"
     transform="translate(0,-247.98)">
    <path
       style="fill:#000000;fill-opacity:1;stroke-width:0.08061868"
       d="m 12.891153,286.35342 v -0.64501 h -0.644952 -0.644952 v -0.64496 -0.64501 h -0.644952 -0.644952 v -5.36115 -5.36114 H 9.6260919 8.9408386 v -0.68556 -0.68556 H 8.2555848 7.570331 v -1.28992 -1.28998 H 6.925379 6.2804275 v -1.33012 -1.33028 H 5.5951633 4.9099095 v -2.05573 -2.05578 h 0.6852538 0.6852642 v -1.28988 -1.28987 H 6.925379 7.570331 v -0.68556 -0.68556 h 0.6852538 0.6852538 v -0.64501 -0.64501 h 0.6852533 0.6852531 v -0.68556 -0.68556 h 1.289904 1.289901 v -0.64501 -0.64497 h 1.975155 1.975157 v 0.64497 0.64501 h 1.370517 1.370515 v 0.68556 0.68556 h 0.644952 0.644952 v 0.64501 0.64501 h 0.685254 0.685254 v 0.68556 0.68556 h 0.685253 0.685254 v 1.28987 1.28988 h 0.685253 0.685254 v 2.05578 2.05573 h -0.685254 -0.685253 v 1.33028 1.33012 h -0.685254 -0.685253 v 1.28998 1.28992 h -0.685254 -0.685254 v 0.68556 0.68556 h -0.644952 -0.644952 v 5.36114 5.36115 H 18.937542 18.29259 v 0.64501 0.64496 h -0.725566 -0.725565 v 0.64501 0.64497 h -1.97515 -1.975156 z m 5.401448,-3.30531 v -1.37047 h -3.345675 -3.345674 v 1.37047 1.37052 h 3.345674 3.345675 z m 0,-3.99062 v -1.41087 h -3.345675 -3.345674 v 1.41087 1.41077 h 3.345674 3.345675 z m -4.030933,-7.98129 v -3.99062 H 13.576414 12.89116 v -0.68556 -0.68556 h 1.975155 1.975157 v 0.68556 0.68556 h -0.60464 -0.604639 v 3.99062 3.99067 h 1.330205 1.33021 v -0.68556 -0.68561 h 0.644952 0.644952 v -0.68555 -0.68556 h 0.644952 0.644952 v -1.28988 -1.28997 h 0.685254 0.685253 v -1.33018 -1.33022 h 0.685254 0.685253 v -2.05578 -2.05574 h -0.685253 -0.685254 v -1.28987 -1.28988 H 21.55767 20.872416 v -0.68561 -0.68556 h -0.644973 -0.644952 v -0.64496 -0.64501 h -1.370508 -1.370518 v -0.68556 -0.68556 h -1.975156 -1.975156 v 0.68556 0.68556 h -1.289901 -1.289898 v 0.64501 0.64496 H 9.6261013 8.940848 v 0.68556 0.68561 H 8.2555942 7.5703404 v 1.28988 1.28987 h -0.644952 -0.644952 v 2.05574 2.05578 h 0.644952 0.644952 v 1.33022 1.33018 H 8.2555942 8.940848 v 1.28997 1.28988 h 0.6852533 0.6852527 v 0.68556 0.68555 h 0.644953 0.644952 v 0.68561 0.68556 h 1.330208 1.330207 z m -5.3208304,-8.70675 v -0.60442 h 0.6852533 0.6852531 v -0.68561 -0.68556 h 0.644952 0.644952 v -0.68555 -0.68556 h 0.644952 0.644952 v 0.68556 0.68555 H 12.2462 11.601248 v 0.68556 0.68561 h -0.644952 -0.644952 v 0.60442 0.60441 H 9.6260909 8.9408376 Z m -5.804542,12.01216 v -0.68556 h 0.6852538 0.6852538 v -0.68556 -0.68561 H 5.192057 5.8773103 v 0.68561 0.68556 H 5.192057 4.5068032 v 0.68556 0.68556 H 3.8215494 3.1362956 Z m 22.6538374,0 v -0.68556 h -0.644952 -0.644942 v -0.68556 -0.68561 h 0.644942 0.644952 v 0.68561 0.68556 h 0.685254 0.685253 v 0.68556 0.68556 H 26.475387 25.790133 Z M 0.95959233,265.07009 v -0.64501 H 2.2898001 3.6200079 v 0.64501 0.64497 H 2.2898001 0.95959233 Z m 25.23363467,0 v -0.64501 h 1.370514 1.370518 v 0.64501 0.64497 H 27.563741 26.193227 Z M 5.3936163,255.2749 v -0.68555 H 4.7083625 4.0231087 v -0.64497 -0.64501 h 0.6852538 0.6852538 v 0.64501 0.64497 h 0.6852533 0.6852538 v 0.68555 0.68556 H 6.0788696 5.3936163 Z m 18.6229077,0 v -0.68555 h 0.644942 0.644952 v -0.64497 -0.64501 h 0.725565 0.725566 v 0.64501 0.64497 h -0.725566 -0.725565 v 0.68555 0.68556 h -0.644952 -0.644942 z m -9.754856,-3.74873 v -1.37052 h 0.685253 0.685254 v 1.37052 1.37047 h -0.685254 -0.685253 z"
       id="path821"
       inkscape:connector-curvature="0" />
  </g>
</svg>
