<?xml version="1.0" encoding="UTF-8" standalone="no"?>
<!-- Created with Inkscape (http://www.inkscape.org/) -->

<svg
   xmlns:dc="http://purl.org/dc/elements/1.1/"
   xmlns:cc="http://creativecommons.org/ns#"
   xmlns:rdf="http://www.w3.org/1999/02/22-rdf-syntax-ns#"
   xmlns:svg="http://www.w3.org/2000/svg"
   xmlns="http://www.w3.org/2000/svg"
   xmlns:sodipodi="http://sodipodi.sourceforge.net/DTD/sodipodi-0.dtd"
   xmlns:inkscape="http://www.inkscape.org/namespaces/inkscape"
   width="7.8000002cm"
   height="7.8000002cm"
   viewBox="0 0 7.7999997 7.8000002"
   version="1.1"
   id="svg8"
   inkscape:version="0.92.2 (30a58d1, 2017-08-07)"
   sodipodi:docname="bulb.svg">
  <defs
     id="defs2" />
  <sodipodi:namedview
     id="base"
     pagecolor="#ffffff"
     bordercolor="#666666"
     borderopacity="1.0"
     inkscape:pageopacity="0"
     inkscape:pageshadow="2"
     inkscape:zoom="2.8284271"
     inkscape:cx="301.31531"
     inkscape:cy="192.80779"
     inkscape:document-units="cm"
     inkscape:current-layer="layer1"
     showgrid="true"
     scale-x="1"
     showguides="true"
     borderlayer="false"
     showborder="true"
     inkscape:showpageshadow="true"
     inkscape:window-width="3066"
     inkscape:window-height="1689"
     inkscape:window-x="134"
     inkscape:window-y="55"
     inkscape:window-maximized="1"
     units="cm" />
  <metadata
     id="metadata5">
    <rdf:RDF>
      <cc:Work
         rdf:about="">
        <dc:format>image/svg+xml</dc:format>
        <dc:type
           rdf:resource="http://purl.org/dc/dcmitype/StillImage" />
        <dc:title />
      </cc:Work>
    </rdf:RDF>
  </metadata>
  <g
     inkscape:label="Ebene 1"
     inkscape:groupmode="layer"
     id="layer1"
     transform="translate(0,-282.18)">
    <path
       style="fill:#000000;fill-opacity:1;stroke-width:0.01626466"
       d="m 3.4725947,289.72595 v -0.13013 H 3.3424769 3.2123591 v -0.13012 -0.13013 H 3.0822413 2.9521235 v -1.0816 -1.0816 H 2.8138749 2.6756264 v -0.13831 -0.13831 H 2.5373778 2.3991292 v -0.26024 -0.26025 H 2.2690114 2.1388937 v -0.26835 -0.26838 H 2.000643 1.8623944 v -0.41474 -0.41475 H 2.000643 2.1388937 v -0.26023 -0.26023 h 0.1301177 0.1301178 v -0.13831 -0.13831 h 0.1382486 0.1382486 v -0.13013 -0.13013 h 0.1382485 0.1382486 v -0.13831 -0.13831 H 3.2123591 3.472594 v -0.13013 -0.13012 h 0.3984837 0.398484 v 0.13012 0.13013 h 0.2764992 0.2764986 v 0.13831 0.13831 h 0.1301178 0.1301178 v 0.13013 0.13013 h 0.1382486 0.1382486 v 0.13831 0.13831 h 0.1382485 0.1382486 v 0.26023 0.26023 H 5.774038 5.9122866 v 0.41475 0.41474 H 5.774038 5.6357894 v 0.26838 0.26835 H 5.4975408 5.3592923 v 0.26025 0.26024 H 5.2210437 5.0827951 v 0.13831 0.13831 H 4.9526773 4.8225595 v 1.0816 1.0816 H 4.6924418 4.562324 v 0.13013 0.13012 H 4.4159425 4.2695611 v 0.13013 0.13012 H 3.8710784 3.4725947 Z m 1.0897314,-0.66684 v -0.27649 H 3.8873429 3.2123597 v 0.27649 0.2765 h 0.6749832 0.6749832 z m 0,-0.8051 v -0.28464 H 3.8873429 3.2123597 v 0.28464 0.28462 H 3.8873429 4.5623261 Z M 3.7490933,286.6438 v -0.8051 H 3.6108447 3.4725961 v -0.13831 -0.13831 h 0.3984837 0.398484 v 0.13831 0.13831 H 4.1475789 4.025594 v 0.8051 0.80511 h 0.2683663 0.2683672 v -0.13831 -0.13832 h 0.1301178 0.1301178 v -0.13831 -0.13831 h 0.1301178 0.1301178 v -0.26023 -0.26025 h 0.1382486 0.1382485 v -0.26836 -0.26837 H 5.4975444 5.635793 v -0.41475 -0.41474 H 5.4975444 5.3592958 v -0.26023 -0.26023 H 5.2210473 5.0827987 v -0.13832 -0.13831 H 4.9526767 4.8225589 v -0.13012 -0.13013 H 4.5460616 4.2695623 V 283.81331 283.675 H 3.8710784 3.4725947 v 0.13831 0.13831 H 3.2123597 2.9521254 v 0.13013 0.13012 H 2.8138768 2.6756283 v 0.13831 0.13832 H 2.5373797 2.3991311 v 0.26023 0.26023 H 2.2690133 2.1388955 v 0.41474 0.41475 h 0.1301178 0.1301178 v 0.26837 0.26836 h 0.1382486 0.1382486 v 0.26025 0.26023 h 0.1382485 0.1382486 v 0.13831 0.13831 H 3.0822432 3.212361 v 0.13832 0.13831 h 0.268367 0.2683665 z m -1.0734671,-1.75657 v -0.12194 h 0.1382485 0.1382486 v -0.13832 -0.13831 h 0.1301178 0.1301178 v -0.13831 -0.13831 h 0.1301178 0.1301177 v 0.13831 0.13831 H 3.3424767 3.2123589 v 0.13831 0.13832 H 3.0822411 2.9521233 v 0.12194 0.12194 H 2.8138747 2.6756262 Z m -1.1710549,2.42343 v -0.13831 h 0.1382486 0.1382486 v -0.13831 -0.13832 h 0.1382486 0.1382485 v 0.13832 0.13831 H 1.9193171 1.7810685 v 0.13831 0.13831 H 1.6428199 1.5045713 Z m 4.5703671,0 v -0.13831 H 5.9448206 5.8147049 v -0.13831 -0.13832 h 0.1301157 0.1301178 v 0.13832 0.13831 H 6.213187 6.3514355 v 0.13831 0.13831 H 6.213187 6.0749384 Z m -5.0095127,-1.87858 v -0.13013 h 0.2683668 0.2683668 v 0.13013 0.13012 H 1.3337925 1.0654257 Z m 5.0908361,0 v -0.13013 h 0.2764986 0.2764993 v 0.13013 0.13012 H 6.4327604 6.1562618 Z m -4.1962805,-1.97616 v -0.13831 H 1.8217327 1.6834841 v -0.13012 -0.13013 h 0.1382486 0.1382486 v 0.13013 0.13012 h 0.1382485 0.1382486 v 0.13831 0.13831 H 2.0982298 1.9599813 Z m 3.7571351,0 v -0.13831 h 0.1301157 0.1301178 v -0.13012 -0.13013 h 0.1463814 0.1463815 v 0.13013 0.13012 H 6.1237313 5.9773499 v 0.13831 0.13831 H 5.8472321 5.7171164 Z m -1.9680231,-0.7563 v -0.2765 h 0.1382485 0.1382486 v 0.2765 0.27649 H 3.8873418 3.7490933 Z"
       id="path821"
       inkscape:connector-curvature="0" />
  </g>
</svg>
