<?xml version="1.0" encoding="UTF-8" standalone="no"?>
<!-- Created with Inkscape (http://www.inkscape.org/) -->

<svg
   xmlns:dc="http://purl.org/dc/elements/1.1/"
   xmlns:cc="http://creativecommons.org/ns#"
   xmlns:rdf="http://www.w3.org/1999/02/22-rdf-syntax-ns#"
   xmlns:svg="http://www.w3.org/2000/svg"
   xmlns="http://www.w3.org/2000/svg"
   xmlns:sodipodi="http://sodipodi.sourceforge.net/DTD/sodipodi-0.dtd"
   xmlns:inkscape="http://www.inkscape.org/namespaces/inkscape"
   width="841mm"
   height="594mm"
   viewBox="0 0 841 594"
   version="1.1"
   id="svg8"
   inkscape:version="0.92.2 (5c3e80d, 2017-08-06)"
   sodipodi:docname="Poster_we_beam.svg">
  <defs
     id="defs2">
    <clipPath
       id="clipPath998"
       clipPathUnits="userSpaceOnUse">
      <path
         inkscape:connector-curvature="0"
         id="path996"
         d="M 0.06,63 H 45.787 V 0 H 0.06 Z" />
    </clipPath>
    <clipPath
       id="clipPath1004"
       clipPathUnits="userSpaceOnUse">
      <path
         inkscape:connector-curvature="0"
         id="path1002"
         d="M 0,0 H 46 V 63 H 0 Z" />
    </clipPath>
    <clipPath
       id="clipPath1020"
       clipPathUnits="userSpaceOnUse">
      <path
         inkscape:connector-curvature="0"
         id="path1018"
         d="M 0,0 H 46 V 63 H 0 Z" />
    </clipPath>
  </defs>
  <sodipodi:namedview
     id="base"
     pagecolor="#ffffff"
     bordercolor="#666666"
     borderopacity="1.0"
     inkscape:pageopacity="0.0"
     inkscape:pageshadow="2"
     inkscape:zoom="0.12374369"
     inkscape:cx="2700.7919"
     inkscape:cy="1001.8418"
     inkscape:document-units="mm"
     inkscape:current-layer="layer1"
     showgrid="false"
     inkscape:window-width="1704"
     inkscape:window-height="1372"
     inkscape:window-x="1720"
     inkscape:window-y="0"
     inkscape:window-maximized="0" />
  <metadata
     id="metadata5">
    <rdf:RDF>
      <cc:Work
         rdf:about="">
        <dc:format>image/svg+xml</dc:format>
        <dc:type
           rdf:resource="http://purl.org/dc/dcmitype/StillImage" />
        <dc:title />
      </cc:Work>
    </rdf:RDF>
  </metadata>
  <g
     inkscape:label="Ebene 1"
     inkscape:groupmode="layer"
     id="layer1"
     transform="translate(0,297)">
    <path
       style="fill:#fffc00;stroke:#000000;stroke-width:0.26458332px;stroke-linecap:butt;stroke-linejoin:miter;stroke-opacity:1;fill-opacity:1"
       d="m 702.56187,-124.60983 44.57266,22.28643 22.28641,22.286435 22.28631,66.859287 v 90.53851 l -22.28631,44.572848 -22.28641,23.6792 -44.57266,22.28644 H 589.73714 L 543.7714,145.61288 521.48507,121.93368 V 99.647268 l 22.28633,-22.352873 23.6793,-44.57176 v -112.7596 -22.286435 l 22.28644,-22.28643 z"
       id="path832"
       inkscape:connector-curvature="0" />
    <path
       style="fill:#14fff3;fill-opacity:1;stroke:#000000;stroke-width:0.26458332px;stroke-linecap:butt;stroke-linejoin:miter;stroke-opacity:1"
       d="M 138.43819,-124.60983 H 251.2629 v 22.28643 h 22.28631 V 55.074396 l 23.67931,22.286436 22.28644,22.286436 v 22.286412 c -10.12481,22.43575 -40.07191,33.70292 -68.25206,45.96564 H 138.43819 L 93.865432,145.61288 71.579109,121.93368 49.292785,77.360832 v -90.53851 L 71.579109,-80.036965 93.865432,-102.3234 Z"
       id="path828"
       inkscape:connector-curvature="0"
       sodipodi:nodetypes="ccccccccccccccccc" />
    <g
       id="g990"
       transform="matrix(8.2482804,0,0,-8.2482804,29.869987,-262.97023)" />
    <ellipse
       style="fill:#ffffff;fill-opacity:1;stroke:none;stroke-width:0.0512697;stroke-miterlimit:4;stroke-dasharray:none;stroke-opacity:1"
       id="path1439-1-4"
       cx="420.63397"
       cy="-14.477469"
       rx="157.06253"
       ry="149.87367" />
    <g
       transform="matrix(108.89491,0,0,108.89491,3.0597093,-31136.099)"
       id="layer1-9"
       inkscape:label="Ebene 1">
      <g
         transform="translate(15.998472,-16.069027)"
         id="g1752">
        <path
           inkscape:connector-curvature="0"
           id="path1807"
           d="m -9.370169,304.48537 v -0.10232 h 0.1023303 0.1023293 v 0.10232 0.10234 H -9.2678387 -9.370169 Z m -4.96299,-0.20465 v -0.10234 h 0.102329 0.10233 v 0.10234 0.10233 h -0.10233 -0.102329 z m 3.095473,-0.21106 v -0.10873 h 0.10233 0.102329 v 0.10873 0.10872 h -0.102329 -0.10233 z m -1.445407,-0.21745 v -0.10873 h 0.102329 0.102331 v 0.10873 0.10872 h -0.102331 -0.102329 z m -2.072176,-0.21105 v -0.10233 h -0.204659 -0.20466 v -0.10234 -0.10232 h -0.102329 -0.10233 v -0.10873 -0.10872 h -0.10233 -0.102329 v -0.20466 -0.20466 h -0.108725 -0.108726 v -0.51805 -0.51804 h 0.108726 0.108725 v -0.20466 -0.20466 h 0.102329 0.10233 v -0.10233 -0.10233 h 0.10233 0.102329 v -0.10233 -0.10233 h 0.20466 0.204659 v -0.10872 -0.10873 h 0.518044 0.518044 v 0.10873 0.10872 h 0.211055 0.211055 v -0.10872 -0.10873 h 0.10233 0.10233 v -0.10232 -0.10234 h 0.204658 0.20466 v -0.10233 -0.10232 h 0.518044 0.518044 v 0.10232 0.10233 h 0.20466 0.204659 v 0.10234 0.10232 h 0.10233 0.102329 v 0.10873 0.10872 h 0.211056 0.211055 v -0.10872 -0.10873 h 0.518044 0.5180443 v 0.10873 0.10872 h 0.2046587 0.2046596 v 0.10233 0.10233 h 0.1023294 0.1023303 v 0.10233 0.10233 h 0.1023293 0.1023294 v 0.20466 0.20466 h 0.1087258 0.1087249 v 0.51804 0.51805 H -8.6474652 -8.756191 v 0.20466 0.20466 h -0.1023294 -0.1023293 v 0.10872 0.10873 H -9.06318 -9.1655094 v 0.10232 0.10234 H -9.370169 -9.5748277 v 0.10233 0.10232 h -0.5180443 -0.518044 v -0.10232 -0.10233 h -0.211055 -0.211056 v -0.10234 -0.10232 h -0.102329 -0.10233 v -0.10873 -0.10872 h -0.204659 -0.20466 v 0.10872 0.10873 h -0.518044 -0.518044 v -0.10873 -0.10872 h -0.20466 -0.204658 v 0.10872 0.10873 h -0.10233 -0.10233 v 0.10232 0.10234 h -0.211055 -0.211055 v 0.10233 0.10232 h -0.518044 -0.518044 z m 0.204659,-0.20467 v -0.10232 h 0.108726 0.108725 v 0.10232 0.10234 h 0.306989 0.306989 v -0.10234 -0.10232 h 0.211055 0.211055 v -0.10873 -0.10872 h 0.10233 0.10233 v -0.10233 -0.10233 h 0.204658 0.20466 v 0.10233 0.10233 h 0.518044 0.518044 v -0.10233 -0.10233 h 0.20466 0.204659 v 0.10233 0.10233 h 0.10233 0.102329 v 0.10872 0.10873 h 0.211056 0.211055 v 0.10232 0.10234 h 0.518044 0.5180443 v -0.10234 -0.10232 h 0.2046587 0.2046596 v -0.10873 -0.10872 h 0.1023294 0.1023303 v -0.20466 -0.20466 h 0.1023293 0.1023294 v -0.41572 -0.41571 h -0.1023294 -0.1023293 v -0.30699 -0.30699 H -9.06318 -9.1655094 v -0.10233 -0.10233 H -9.370169 -9.5748277 v -0.10233 -0.10233 h -0.5180443 -0.518044 v 0.10233 0.10233 h -0.102331 -0.102329 v 0.10233 0.10233 h 0.102329 0.102331 v 0.30699 0.30699 h 0.102329 0.102329 v 0.10872 0.10874 h -0.102329 -0.102329 v 0.10232 0.10233 h -0.102331 -0.102329 v -0.41572 -0.41571 h -0.108725 -0.108726 v 0.20466 0.20466 h -0.102329 -0.10233 v 0.10872 0.10874 h -0.306989 -0.306989 v -0.10874 -0.10872 h 0.10233 0.102329 v -0.10233 -0.10233 h 0.10233 0.10233 v -0.10233 -0.10233 h -0.20466 -0.204659 v 0.20466 0.20466 h -0.10233 -0.102329 v -0.10233 -0.10233 h -0.108726 -0.108726 v 0.10233 0.10233 h -0.102329 -0.102329 v 0.10872 0.10874 h -0.306989 -0.306989 v -0.10874 -0.10872 h 0.102329 0.102329 v -0.10233 -0.10233 h 0.102331 0.102329 v -0.10233 -0.10233 h -0.20466 -0.204658 v 0.20466 0.20466 h -0.10233 -0.10233 v -0.20466 -0.20466 h -0.108725 -0.108726 v 0.41571 0.41572 h -0.102329 -0.10233 v -0.10233 -0.10232 h -0.10233 -0.102329 v -0.10874 -0.10872 h 0.102329 0.10233 v -0.30699 -0.30699 h 0.10233 0.102329 v -0.10233 -0.10233 h -0.102329 -0.10233 v -0.10233 -0.10233 h -0.518044 -0.518044 v 0.10233 0.10233 h -0.204659 -0.20466 v 0.10233 0.10233 h -0.102329 -0.10233 v 0.30699 0.30699 h -0.10233 -0.102329 v 0.41571 0.41572 h 0.102329 0.10233 v 0.20466 0.20466 h 0.10233 0.102329 v 0.10872 0.10873 h 0.20466 0.204659 v 0.10232 0.10234 h 0.10233 0.102329 z m -0.204659,-0.41571 v -0.31338 h -0.10233 -0.102329 v -0.10233 -0.10233 h 0.102329 0.10233 v 0.10233 0.10233 h 0.518044 0.518044 v -0.10233 -0.10233 h 0.10233 0.102329 v -0.10233 -0.10233 h 0.108726 0.108725 v 0.20466 0.20466 h 0.10233 0.10233 v 0.10233 0.10233 h -0.10233 -0.10233 v -0.10233 -0.10233 h -0.211055 -0.211055 v 0.10233 0.10233 h -0.204659 -0.20466 v 0.21105 0.21106 h -0.10233 -0.102329 v -0.21106 -0.21105 h -0.108725 -0.108726 v 0.21105 0.21106 h -0.102329 -0.10233 z m 4.144353,-0.007 v -0.10232 h -0.102331 -0.102329 v -0.10234 -0.10233 h -0.108725 -0.108726 v 0.10233 0.10234 h -0.102329 -0.10233 v -0.10234 -0.10233 h 0.10233 0.102329 v -0.20466 -0.20465 h 0.108726 0.108725 v 0.20465 0.20466 h 0.102329 0.102331 v 0.10233 0.10234 h 0.518044 0.5180443 v -0.10234 -0.10233 h 0.1023293 0.1023294 v 0.10233 0.10234 h -0.1023294 -0.1023293 v 0.10232 0.10233 h -0.5180443 -0.518044 z m -2.072177,-0.40931 v -0.10234 h 0.518044 0.518044 V 302.4 302.29767 h 0.10233 0.10233 v 0.10233 0.10232 h -0.10233 -0.10233 v 0.10234 0.10232 h -0.518044 -0.518044 z m -2.276835,-0.62038 v -0.10872 h 0.204659 0.204659 v 0.10872 0.10873 h -0.204659 -0.204659 z m 5.1804406,0 v -0.10872 h 0.2046597 0.2046587 v 0.10872 0.10873 h -0.2046587 -0.2046597 z m -1.2535396,-0.92736 v -0.20466 h -0.102329 -0.10233 v -0.10873 -0.10872 h -0.204659 -0.20466 v -0.10233 -0.10233 h -0.518044 -0.518044 v 0.10233 0.10233 h -0.20466 -0.204658 v 0.10872 0.10873 h -0.10233 -0.10233 v 0.20466 0.20466 h 1.132022 1.132022 z m -4.131561,-0.52444 v -0.10233 h 0.10233 0.10233 v 0.10233 0.10233 h -0.10233 -0.10233 z m 5.5897603,-0.40932 v -0.10232 h 0.1023293 0.1023294 v 0.10232 0.10233 H -9.4724984 -9.5748277 Z M -13.92384,299.9249 v -0.10873 h 0.102329 0.10233 v 0.10873 0.10872 h -0.10233 -0.102329 z m 4.7583306,-0.007 v -0.10233 h 0.1023294 0.1023303 v 0.10233 0.10233 H -9.06318 -9.1655094 Z m -2.4814956,-0.40932 v -0.10233 h 0.10233 0.10233 v 0.10233 0.10233 h -0.10233 -0.10233 z"
           style="fill:#000000;fill-opacity:1;stroke-width:0.01279121" />
      </g>
    </g>
  </g>
</svg>
