<?xml version="1.0" encoding="UTF-8" standalone="no"?>
<!-- Created with Inkscape (http://www.inkscape.org/) -->

<svg
   xmlns:dc="http://purl.org/dc/elements/1.1/"
   xmlns:cc="http://creativecommons.org/ns#"
   xmlns:rdf="http://www.w3.org/1999/02/22-rdf-syntax-ns#"
   xmlns:svg="http://www.w3.org/2000/svg"
   xmlns="http://www.w3.org/2000/svg"
   xmlns:sodipodi="http://sodipodi.sourceforge.net/DTD/sodipodi-0.dtd"
   xmlns:inkscape="http://www.inkscape.org/namespaces/inkscape"
   width="841mm"
   height="1189mm"
   viewBox="0 0 841 1189"
   version="1.1"
   id="svg8"
   inkscape:version="0.92.3 (2405546, 2018-03-11)"
   sodipodi:docname="Poster_Logo - portrait.svg">
  <defs
     id="defs2">
    <clipPath
       id="clipPath998"
       clipPathUnits="userSpaceOnUse">
      <path
         inkscape:connector-curvature="0"
         id="path996"
         d="M 0.06,63 H 45.787 V 0 H 0.06 Z" />
    </clipPath>
    <clipPath
       id="clipPath1004"
       clipPathUnits="userSpaceOnUse">
      <path
         inkscape:connector-curvature="0"
         id="path1002"
         d="M 0,0 H 46 V 63 H 0 Z" />
    </clipPath>
    <clipPath
       id="clipPath1020"
       clipPathUnits="userSpaceOnUse">
      <path
         inkscape:connector-curvature="0"
         id="path1018"
         d="M 0,0 H 46 V 63 H 0 Z" />
    </clipPath>
  </defs>
  <sodipodi:namedview
     id="base"
     pagecolor="#ffffff"
     bordercolor="#666666"
     borderopacity="1.0"
     inkscape:pageopacity="0.0"
     inkscape:pageshadow="2"
     inkscape:zoom="0.12374369"
     inkscape:cx="2151.8883"
     inkscape:cy="2424.9696"
     inkscape:document-units="mm"
     inkscape:current-layer="layer1"
     showgrid="false"
     inkscape:window-width="1704"
     inkscape:window-height="1368"
     inkscape:window-x="0"
     inkscape:window-y="0"
     inkscape:window-maximized="0" />
  <metadata
     id="metadata5">
    <rdf:RDF>
      <cc:Work
         rdf:about="">
        <dc:format>image/svg+xml</dc:format>
        <dc:type
           rdf:resource="http://purl.org/dc/dcmitype/StillImage" />
        <dc:title></dc:title>
      </cc:Work>
    </rdf:RDF>
  </metadata>
  <g
     inkscape:label="Ebene 1"
     inkscape:groupmode="layer"
     id="layer1"
     transform="translate(0,892)">
    <g
       id="g108"
       transform="translate(229.45762,-75.570721)">
      <path
         id="path85"
         d="m 363.35892,-223.36847 c -43.54085,-5.27174 -79.76175,-9.6128 -80.49092,-9.647 -1.25844,-0.057 -0.31573,-16.09448 1.58448,-26.95939 0.83744,-4.78731 1.12781,-4.98678 5.96544,-4.08061 4.42837,0.83208 5.08514,0.56992 5.08514,-2.13149 0,-2.98067 -0.82153,-3.08326 -24.88046,-3.08326 -13.68426,0 -24.88047,-0.34195 -24.88047,-0.75799 0,-0.39894 16.96396,-46.92359 37.69767,-103.34772 20.73373,-56.42413 37.69768,-103.24286 37.69768,-104.04132 0,-0.79788 -2.37496,-1.45328 -5.27766,-1.45328 -6.10084,0 -5.90556,1.21962 -3.26648,-20.35689 l 1.84459,-15.07888 5.98864,0.51292 c 3.29372,0.28496 40.1805,4.51375 81.97056,9.42416 41.79001,4.91269 76.78809,8.93232 77.77347,8.93232 1.37464,0 1.34273,3.59618 -0.13678,15.45617 -1.06118,8.50089 -1.96165,16.50709 -2.00098,17.79225 -0.0543,1.76105 -1.3376,2.18849 -5.20107,1.73825 -6.32158,-0.73519 -5.97416,-1.80664 -9.35274,28.72328 l -2.62846,23.74961 h -5.76996 c -5.36977,0 -5.76996,0.28496 -5.76996,4.39976 0,7.76399 -1.30569,9.34551 -6.85395,8.30484 -4.7856,-0.90047 -5.01641,-0.72379 -5.47976,4.10911 -0.44453,4.64483 -0.93808,5.08367 -6.13824,5.5168 -4.9446,0.39895 -5.65472,0.95177 -5.65472,4.34278 0,2.13149 8.8213,27.7869 19.60283,57.0157 10.78153,29.22879 19.60277,53.56997 19.60277,54.09088 0,0.51292 -4.39748,0.94606 -9.77266,0.94606 -10.91073,0 -10.17833,-0.85488 -12.13372,14.1596 -1.0458,8.03128 0.19947,9.90232 6.61817,9.94393 3.18413,0.0205 3.47023,0.51292 2.70483,4.92409 -0.47303,2.69571 -1.31252,9.82026 -1.87047,15.83346 -0.91757,9.88464 -1.32107,10.91733 -4.21283,10.7777 -1.75877,-0.057 -38.82228,-4.46815 -82.36307,-9.73931 z"
         style="fill:#000000;fill-opacity:1;stroke-width:1.50790691"
         inkscape:connector-curvature="0" />
      <path
         id="path83"
         d="m 429.70679,-232.41249 c 0,-2.85529 -0.62805,-5.18626 -1.39516,-5.18626 -0.76711,0 -26.90518,-3.05476 -58.08424,-6.78601 -31.17901,-3.73297 -58.62655,-6.78544 -60.99452,-6.78544 -3.62582,0 -4.45585,0.75229 -5.25835,4.76451 -0.52432,2.62162 -0.77001,4.94688 -0.54655,5.16915 0.80894,0.80929 124.04639,15.20085 125.14776,14.61498 0.62178,-0.34195 1.13072,-2.93508 1.13072,-5.79036 z"
         style="fill:#000000;fill-opacity:1;stroke-width:1.50790691"
         inkscape:connector-curvature="0" />
      <path
         id="path81"
         d="m 431.86336,-251.5492 c 0.38754,-1.86933 1.46013,-10.51783 2.38225,-19.22617 0.92213,-8.70777 2.02834,-17.69879 2.45863,-19.9796 0.73519,-3.89824 0.45593,-4.149 -4.61519,-4.149 -5.29169,0 -5.39769,-0.11399 -5.39769,-6.03144 0,-5.69918 -0.25077,-6.03201 -4.52344,-6.03201 -4.27267,0 -4.52401,-0.34195 -4.52401,-6.03144 0,-5.79492 -0.19377,-6.03257 -4.90072,-6.0548 -6.83126,-0.0319 -9.02846,-1.83514 -8.42823,-6.91253 0.44454,-3.78425 -0.0565,-4.42826 -4.01222,-5.11216 -3.9689,-0.6839 -4.58099,-1.47609 -4.99191,-6.43095 -0.42173,-5.05517 -0.9073,-5.64789 -4.64938,-5.64789 -2.29962,0 -4.5166,-0.34195 -4.92694,-0.74659 -0.41034,-0.39894 0.12538,-7.70472 1.18486,-16.21017 1.06175,-8.50545 1.96279,-16.38798 2.00212,-17.51699 0.0532,-1.51598 1.42764,-1.79524 5.27117,-1.07714 5.00957,0.94036 5.23583,0.78079 6.19945,-4.35417 0.9056,-4.8272 1.47152,-5.32873 5.99023,-5.32873 4.34334,0 5.12185,-0.59841 6.0067,-4.62773 0.97627,-4.44536 1.296,-4.61064 8.0363,-4.1889 l 7.01967,0.45594 0.75401,-6.74213 0.754,-6.74212 5.65472,0.51292 c 5.59374,0.51293 5.65472,0.45594 5.65472,-5.02097 0,-5.45411 0.0627,-5.51111 5.65472,-5.02098 l 5.65473,0.51293 2.62447,-20.99919 c 1.4436,-11.54995 2.36174,-21.26191 2.04087,-21.58335 -1.62597,-1.62426 -123.88507,-15.00536 -124.73013,-13.65009 -0.51692,0.83208 -1.8149,10.08868 -2.88424,20.57687 -1.06934,10.48763 -2.00343,19.36466 -2.07581,19.72656 -0.0724,0.34195 2.0737,1.23102 4.76913,1.92632 4.34397,1.12274 4.90072,1.86363 4.90072,6.50447 0,4.1547 0.59659,5.23755 2.8925,5.23755 5.89399,0 7.00408,1.345 6.39335,7.74974 -0.67598,7.08863 0.96384,8.77901 8.55,8.81434 4.87861,0.0222 5.00479,0.17098 4.52372,5.67638 -0.47303,5.38002 -0.26216,5.67638 4.31998,6.12092 4.36044,0.39894 4.85854,0.99165 5.27743,6.03144 0.41604,4.97538 0.94778,5.61368 5.0546,6.01491 l 4.5924,0.45593 -1.89669,15.38322 c -1.04294,8.461 -1.92233,16.19079 -1.9531,17.17789 -0.0312,0.98595 -2.60111,2.00611 -5.71132,2.26257 -5.1475,0.39894 -5.6969,0.90047 -6.12297,5.31163 -0.43883,4.53085 -0.76825,4.78731 -5.05334,3.92673 -5.08526,-1.02015 -7.23397,0.98026 -7.27245,6.75923 -0.0213,3.19154 -0.59118,3.4309 -7.18565,3.01486 -7.11586,-0.45593 -7.16569,-0.39894 -7.64299,4.55364 -0.45879,4.78161 -0.73178,4.98678 -6.03163,4.52515 -5.27761,-0.45594 -5.57448,-0.22797 -6.02371,4.41686 -0.44112,4.57074 -0.85066,4.90129 -6.12013,4.90129 h -5.6476 l -2.61324,22.80696 c -1.43728,12.54389 -2.41531,23.00416 -2.17338,23.24523 0.24221,0.22797 5.35945,0.92327 11.37221,1.51598 l 10.93232,1.07715 v -5.63649 c 0,-4.51944 0.47246,-5.45411 2.38522,-4.71891 1.31184,0.51292 4.36534,0.91756 6.78558,0.91756 4.12849,0 4.4004,0.39895 4.4004,6.03144 0,5.88839 0.12538,6.03201 5.27766,6.03201 3.2059,0 5.28576,-0.74089 5.29824,-1.88643 0.0121,-1.03725 0.41832,-3.36821 0.90457,-5.18055 0.7597,-2.83249 0.12083,-3.4366 -4.54429,-4.31428 -4.71362,-0.88337 -5.4283,-1.57867 -5.4283,-5.28313 0,-5.14066 1.01582,-5.91689 6.4172,-4.8842 3.50933,0.67251 4.13817,1.53878 4.13817,5.73167 0,4.99817 1.96063,6.77119 7.49506,6.77119 1.92918,0 3.01886,-1.56728 3.73183,-5.36863 0.89021,-4.74171 1.48064,-5.31733 5.06827,-4.90129 3.34143,0.39894 4.14387,1.32221 4.52629,5.27174 0.44453,4.57074 0.18807,4.8272 -5.27744,5.27744 -5.22272,0.45593 -5.78489,0.90617 -6.2052,5.23754 -0.41604,4.26868 0.0367,4.8728 4.33536,5.81601 5.29966,1.16263 7.37382,-0.63261 7.41326,-6.43095 0.0158,-2.33096 0.92783,-3.39101 2.9157,-3.39101 5.97872,0 7.4723,1.51598 6.62768,6.71819 -0.77622,4.78161 -0.59556,4.99818 4.68359,5.61939 6.54208,0.76369 6.90683,0.51292 6.90683,-5.13496 0,-4.1946 0.23936,-4.34277 6.40861,-3.89254 6.20059,0.45593 6.42365,0.64401 6.87133,6.02916 0.50152,6.01263 1.35469,6.3939 15.71855,7.00999 4.71607,0.22796 5.7401,-0.28496 6.33184,-3.15165 z"
         style="fill:#ffffff;fill-opacity:1;stroke-width:1.50790691"
         inkscape:connector-curvature="0" />
      <path
         id="path79"
         d="m 386.95932,-264.3752 c -0.38755,-0.62691 -0.34765,-3.00346 0.0855,-5.27743 0.68333,-3.57339 1.51142,-4.13761 6.06882,-4.13761 4.73716,0 5.18454,0.34196 4.36842,3.39101 -0.50153,1.86364 -0.91871,4.24019 -0.92954,5.27744 -0.0222,2.02321 -8.40155,2.67292 -9.59427,0.74659 z"
         style="fill:#000000;fill-opacity:1;stroke-width:1.50790691"
         inkscape:connector-curvature="0" />
      <path
         id="path77"
         d="m 377.74079,-276.71562 c -0.47873,-0.78079 -0.43884,-4.1376 0.0912,-7.46535 0.93125,-5.82513 1.14212,-6.01605 5.68721,-5.15206 2.59598,0.51293 4.78047,0.96886 4.85456,1.06005 0.0741,0.11398 -0.16528,3.04336 -0.53572,6.56887 -0.61437,5.87528 -1.02585,6.40872 -4.94632,6.40872 -2.35205,0 -4.67047,-0.63831 -5.15148,-1.41909 z"
         style="fill:#000000;fill-opacity:1;stroke-width:1.50790691"
         inkscape:connector-curvature="0" />
      <path
         id="path75"
         d="m 355.81955,-282.71515 c 0,-7.1935 1.41881,-9.17054 6.58082,-9.17054 4.70467,0 4.74514,0.057 4.21055,6.78544 -0.52432,6.60534 -0.67592,6.78544 -5.66555,6.78544 -4.65816,0 -5.12584,-0.39894 -5.12584,-4.39977 z"
         style="fill:#000000;fill-opacity:1;stroke-width:1.50790691"
         inkscape:connector-curvature="0" />
      <path
         id="path73"
         d="m 372.78353,-301.99774 c -2.57888,-0.51292 -3.39272,-1.69265 -3.39272,-4.98108 0,-5.20905 1.00362,-5.98185 6.41722,-4.94688 3.54089,0.6782 4.13817,1.52738 4.13817,5.89294 0,5.17486 -0.32486,5.35723 -7.16267,4.03502 z"
         style="fill:#000000;fill-opacity:1;stroke-width:1.50790691"
         inkscape:connector-curvature="0" />
      <path
         id="path71"
         d="m 384.75887,-391.13285 c -4.61691,-0.45594 -4.9543,-0.83778 -4.52401,-5.27744 0.33625,-3.4708 1.2977,-4.90699 3.48049,-5.18625 4.69726,-0.59842 7.05746,1.77814 6.52043,6.57514 -0.44454,3.95523 -0.95918,4.31997 -5.47748,3.88684 z"
         style="fill:#000000;fill-opacity:1;stroke-width:1.50790691"
         inkscape:connector-curvature="0" />
      <path
         id="path69"
         d="m 392.46427,-407.84341 0.87482,-7.38841 -5.18853,-0.97456 c -4.52287,-0.84918 -5.18853,-1.54448 -5.18853,-5.43132 0,-4.06921 0.44454,-4.45675 5.18682,-4.45675 4.90471,0 5.2119,0.28496 5.65472,5.65358 0.42174,5.11216 0.92042,5.69918 5.18568,6.11351 4.35475,0.39894 4.797,0.0348 5.75127,-5.04947 0.89021,-4.74742 1.49091,-5.38572 4.32967,-4.62773 1.8129,0.51292 3.80534,0.89477 4.42712,0.90617 0.62178,0.012 1.13071,2.30246 1.13071,5.09506 0,4.88989 -0.20517,5.06657 -5.65472,4.90129 -5.60571,-0.17097 -5.65871,-0.11398 -6.11835,6.23661 -0.45024,6.26054 -0.58873,6.40872 -5.86468,6.40872 h -5.40111 z"
         style="fill:#000000;fill-opacity:1;stroke-width:1.50790691"
         inkscape:connector-curvature="0" />
      <path
         id="path67"
         d="m 374.96392,-403.20428 c -3.9672,-0.45593 -4.19972,-0.87197 -3.77,-6.78544 0.42743,-5.89466 0.77394,-6.33121 5.35893,-6.77347 4.75824,-0.45593 4.90015,-0.28496 4.87736,5.27744 -0.0293,7.33484 -1.23673,8.88045 -6.46692,8.2809 z"
         style="fill:#000000;fill-opacity:1;stroke-width:1.50790691"
         inkscape:connector-curvature="0" />
      <path
         id="path65"
         d="m 361.8512,-423.73442 c 0,-5.15206 0.21657,-5.37433 5.37318,-5.37433 5.15377,0 5.35381,0.22797 4.90072,4.9013 -0.41604,4.30857 -1.06403,4.95828 -5.37318,5.37432 -4.70068,0.45593 -4.90072,0.22797 -4.90072,-4.90129 z"
         style="fill:#000000;fill-opacity:1;stroke-width:1.50790691"
         inkscape:connector-curvature="0" />
      <path
         id="path63"
         d="m 355.16514,-368.79151 c 0.88406,-7.04931 1.35299,-13.32639 1.04192,-13.94817 -0.31117,-0.62121 -2.42123,-1.12843 -4.68939,-1.12843 -3.83503,0 -4.40974,0.87767 -8.2045,12.52964 -2.24433,6.89144 -4.08055,13.37539 -4.08055,14.40808 0,1.29942 2.20632,1.73825 7.16255,1.4191 l 7.16256,-0.45594 z"
         style="fill:#ffffff;fill-opacity:1;stroke-width:1.50790691"
         inkscape:connector-curvature="0" />
      <path
         id="path61"
         d="m 458.94157,-480.65951 c 0.53002,-2.64441 0.44454,-5.30593 -0.18807,-5.91346 -1.61002,-1.55018 -120.60293,-15.40032 -123.32737,-14.35509 -2.25385,0.86628 -3.23599,9.91828 -1.09384,10.08299 0.62201,0.0479 27.93398,3.35681 60.69324,7.35877 32.75933,4.00082 60.32573,7.35308 61.25874,7.45225 0.93296,0.11398 2.12921,-1.98332 2.65753,-4.62774 z"
         style="fill:#000000;fill-opacity:1;stroke-width:1.50790691"
         inkscape:connector-curvature="0" />
    </g>
    <g
       id="g111"
       transform="translate(49.365161,224.36663)">
      <path
         id="path59"
         d="m 553.35538,-268.59259 c -5.39085,-1.15693 -15.9679,-5.14635 -23.50471,-8.8719 -23.57573,-11.6514 -40.39702,-32.93782 -48.33877,-61.16869 -3.90393,-13.87807 -3.9917,-58.16864 -0.14248,-72.37954 9.36797,-34.594 33.77241,-59.13865 68.21744,-68.60897 13.9428,-3.83554 44.26504,-4.67902 59.67299,-1.66416 28.66937,5.60799 54.66405,23.92857 66.57795,46.92132 5.16403,9.96672 11.45404,28.67256 10.08578,29.99591 -1.17859,1.13983 -55.73322,8.73228 -57.59856,8.01646 -1.02528,-0.39894 -2.66151,-3.69877 -3.63607,-7.34168 -4.51204,-16.86956 -21.24795,-29.18206 -39.66632,-29.18206 -18.11387,0 -32.67777,10.35141 -39.3796,27.98922 -4.57131,12.03096 -6.16862,27.3361 -4.28692,41.08081 2.96015,21.62096 10.57636,35.026 24.15504,42.51528 7.19054,3.96663 9.68957,4.52515 20.26525,4.52515 10.56462,0 13.07095,-0.56992 20.17468,-4.49095 9.26042,-5.12926 17.48285,-14.9763 20.04634,-24.00721 0.96544,-3.40241 2.23009,-6.73814 2.81027,-7.41691 0.58074,-0.6782 14.03741,0.64971 29.90398,2.95217 32.81124,4.75881 30.96026,3.38531 25.70664,19.0666 -7.97029,23.79007 -24.0112,41.89293 -46.90901,52.93907 -7.9695,3.84695 -19.05873,7.78793 -25.6582,9.12381 -14.36751,2.90658 -44.94581,2.91798 -58.49498,0.0131 z"
         style="fill:#000000;fill-opacity:1;stroke-width:1.50790691"
         inkscape:connector-curvature="0" />
    </g>
    <g
       id="g93"
       transform="translate(439.49883,-357.96488)">
      <path
         id="path57"
         d="m 19.556052,-374.82295 v -104.04588 h 30.15814 30.15814 v 39.20578 39.20577 h 36.189768 36.18977 v -39.20577 -39.20578 h 30.15814 30.15815 v 104.04588 104.0453 h -30.15812 -30.15815 v -39.2052 -39.20578 H 116.06212 79.872352 v 39.20578 39.2052 h -30.15814 -30.15814 z"
         style="fill:#000000;fill-opacity:1;stroke-width:1.50790691"
         inkscape:connector-curvature="0" />
    </g>
    <path
       style="fill:#000000;fill-opacity:1;stroke-width:1.50790691"
       d="m 177.04449,-55.048763 c -14.07008,-1.9093 -32.1934,-6.6658 -43.53465,-11.4252 -12.05108,-5.0552 -29.59886,-15.3142 -29.59886,-17.3004 0,-1.6984 28.12158,-45.053647 29.22186,-45.053647 0.37045,0 4.28293,2.3765 8.69466,5.2831 25.43041,16.7482 67.39591,23.993597 85.31321,14.7295 9.58863,-4.9582 8.1782,-13.686 -3.15906,-19.5487 -2.38624,-1.231 -17.43024,-5.1919 -33.43125,-8.7904 -34.43478,-7.7492 -47.95334,-13.3498 -60.21398,-24.9453 -4.72347,-4.4682 -10.09364,-11.5095 -12.445,-16.3202 -3.74607,-7.6636 -4.13589,-10.0265 -4.13589,-25.049 0,-15.1455 0.37044,-17.3466 4.26868,-25.3288 14.32402,-29.336 53.42972,-44.8189 102.00541,-40.3861 9.68729,0.8834 24.09805,3.2542 32.02384,5.2603 14.93623,3.79 41.85395,15.2926 41.85395,17.8869 0,0.815 -2.62048,6.3141 -5.82353,12.2219 -3.20294,5.9072 -8.6412,15.9315 -12.08505,22.2752 l -6.26151,11.5346 -10.25316,-5.0495 c -29.24926,-14.4098 -68.36749,-18.6768 -80.17054,-8.7448 -10.30441,8.6701 -3.19268,16.6952 19.20035,21.6643 40.7539,9.0446 53.13787,12.504 64.59806,18.0458 13.00273,6.2874 23.19519,15.1644 27.81887,24.2272 7.28241,14.2748 6.93733,38.4621 -0.7899,55.366367 -7.62231,16.67408 -26.52876,30.49568 -50.30173,36.77168 -13.44966,3.5505 -46.095,4.9411 -62.79461,2.6729 z"
       id="path49"
       inkscape:connector-curvature="0" />
    <g
       id="g90"
       transform="translate(162.22738,-132.06482)">
      <path
         id="path47"
         d="m -107.10783,-616.94221 v -103.39388 l 63.709069,0.56991 c 56.389823,0.51293 64.661873,0.87768 72.002563,3.28843 13.59924,4.46815 21.87201,9.37001 28.48851,16.88666 8.58163,9.74958 11.23319,19.44844 10.41773,38.10754 -0.67217,15.37866 -2.9825,22.02105 -10.95555,31.4965 l -3.85954,4.58784 8.82366,8.82346 c 12.02651,12.02697 14.34422,19.14923 13.57059,41.70543 -0.49012,14.2924 -1.18263,18.15302 -4.56247,25.43942 -7.89305,17.01546 -24.98836,28.90394 -48.26797,33.56587 -9.28769,1.85793 -23.4501404,2.32527 -70.494653,2.32527 h -58.872229 z"
         style="fill:#000000;fill-opacity:1;stroke-width:1.50790691"
         inkscape:connector-curvature="0" />
      <path
         id="path45"
         d="m 8.5184016,-569.67666 c 4.9492204,-4.95258 5.5374404,-13.00666 1.29263,-17.69708 -4.52919,-5.00388 -12.23442,-6.29132 -34.7379466,-5.80005 l -21.110706,0.45593 -0.44454,11.93009 c -0.24449,6.56146 -0.0787,12.88356 0.36874,14.04961 0.66384,1.72685 5.38521,2.02891 25.671996,1.64136 24.7702866,-0.45593 24.8731366,-0.51292 28.9601666,-4.58214 z"
         style="fill:#ffffff;fill-opacity:1;stroke-width:1.50790691"
         inkscape:connector-curvature="0" />
      <path
         id="path43"
         d="m 2.3496316,-646.70501 c 4.71077,-5.48261 4.72433,-12.15863 0.0342,-16.84848 -4.687,-4.68472 -10.06859,-5.551 -31.0805726,-5.00958 l -17.34093,0.45594 -0.44796,11.1681 c -0.2462,6.14258 -0.0786,12.13013 0.37216,13.30587 0.66811,1.73825 4.89901,2.04601 22.823616,1.64706 21.9844366,-0.51292 22.0066066,-0.51292 25.6390366,-4.71891 z"
         style="fill:#ffffff;fill-opacity:1;stroke-width:1.50790691"
         inkscape:connector-curvature="0" />
    </g>
    <g
       id="g136"
       transform="translate(-538.64574,748.17539)">
      <path
         sodipodi:nodetypes="cccccscsccccccccccccscccssscccc"
         inkscape:connector-curvature="0"
         id="path55"
         d="m 738.50612,-493.94657 c -0.36475,-2.49054 -0.61209,-4.58213 -0.54712,-4.65052 0.0627,-0.057 41.58525,-11.08 91.34618,-17.07439 l 98.89808,-18.03482 -9.35061,7.61979 c -0.1596,-5.16915 0.1368,-5.56239 4.194,-5.56239 2.40111,0 4.72181,-0.92897 5.15661,-2.0574 0.4332,-1.13414 -5.69801,-56.60536 -13.62821,-123.27148 -7.9303,-66.66669 -14.4143,-122.44225 -14.409,-123.94626 0.01,-2.17708 1.0122,-2.63872 4.9104,-2.26257 4.3206,0.39894 4.9572,1.06005 5.3772,5.41992 0.4559,4.76451 0.6714,4.91269 5.6547,3.97802 2.8479,-0.51293 5.2302,-0.72379 5.2929,-0.39894 0.063,0.28496 1.2504,9.02692 2.6387,19.39373 l 2.52411,18.84888 6.2377,0.45594 6.2376,0.45593 0.8156,62.1233 c 0.5699,43.2123 1.5051,66.94196 3.0798,77.95562 1.2453,8.70834 2.3122,16.00271 2.3709,16.21016 0.057,0.22797 21.1422,0.39895 46.852,0.39895 h 46.74504 v 25.63432 25.6349 h -43.72894 c -28.1476,0 -43.7293,0.51292 -43.7293,1.51028 0,0.83208 -2.4278,1.51028 -5.3954,1.51028 -5.3179,0 -5.3886,0.057 -4.9007,5.65358 0.473,5.43702 -1.2636,-6.61168 0,0 -16.30649,-2.20242 -3.91194,-3.89621 0,0 -102.92993,2.12408 -112.59913,8.77788 -202.64224,24.45517 z"
         style="fill:#000000;fill-opacity:1;stroke-width:1.50790691" />
      <path
         id="path53"
         d="m 726.76473,-501.36404 c 0,-6.15796 -1.60716,-7.78109 -6.75101,-6.81565 -4.10398,0.76939 -5.02611,0.39894 -5.71554,-2.22838 -0.81555,-3.11745 -1.28744,-3.14594 -59.77176,-3.14594 h -58.94955 v -103.29188 -103.2913 h 82.93487 82.93493 v 25.61495 25.61494 l -53.15377,0.39895 -53.15371,0.39894 v 12.06345 12.06287 l 49.60997,0.39894 c 40.93541,0.34196 49.90005,0.77509 51.26888,2.55893 1.30511,1.69836 3.66286,1.91493 11.0544,1.01446 5.16745,-0.63261 9.85451,-1.60717 10.4153,-2.16569 0.55852,-0.56992 -2.00098,-26.4721 -5.69233,-57.58049 l -6.71198,-56.5609 h 4.93834 c 3.90393,0 5.08879,0.71239 5.65472,3.39101 0.6554,3.10035 12.94226,106.18306 12.92134,108.40175 -0.005,0.51293 -2.45121,1.4191 -5.43644,1.98331 -5.21247,0.98026 -5.38971,1.21963 -4.4767,6.08501 l 0.95062,5.06657 -7.96335,0.98026 c -4.37981,0.51293 -17.12397,2.12009 -28.32017,3.50499 l -20.35672,2.52474 0.45023,7.16272 c 0.39325,6.27195 0.0855,7.16273 -2.51561,7.16273 -5.919,0 -7.53796,1.53308 -6.88147,6.52613 0.34765,2.63302 2.6769,22.76479 5.17998,44.74252 6.18269,54.2858 5.16345,49.76122 11.20868,49.76122 4.149,0 5.21703,0.6839 6.00944,3.84125 1.28916,5.13496 0.0535,6.71591 -5.24951,6.71591 -3.3665,0 -4.43453,-0.6953 -4.43453,-2.88949 z"
         style="fill:#000000;fill-opacity:1;stroke-width:1.50790691"
         inkscape:connector-curvature="0" />
      <path
         id="path51"
         d="m 706.55893,-577.24801 c -0.56992,-6.83673 -1.56784,-12.96164 -2.21698,-13.61077 -0.64914,-0.64971 -11.9852,-0.99166 -25.19156,-0.76369 l -24.01148,0.39894 -0.45024,11.1681 c -0.24506,6.14258 -0.0969,12.07998 0.33056,13.19417 0.60924,1.59007 6.38609,2.0289 26.67602,2.0289 h 25.89854 z"
         style="fill:#ffffff;fill-opacity:1;stroke-width:1.50790691"
         inkscape:connector-curvature="0" />
      <path
         id="path33"
         d="m 779.26007,-542.57536 c -0.46733,-4.8386 -0.56421,-4.89559 -7.44586,-4.40547 l -6.97339,0.51293 -1.06233,-7.08351 c -1.06062,-7.07267 -1.06974,-7.08179 -6.22082,-6.24629 -3.44116,0.56991 -5.16517,0.22796 -5.17941,-0.95177 -0.012,-0.98595 -0.40465,-3.23143 -0.87996,-4.99247 -0.73234,-2.72991 -0.0383,-3.35682 4.69783,-4.24589 5.26319,-0.98596 5.52593,-1.31081 4.96399,-6.12491 -0.58816,-5.03807 -0.53003,-5.08936 6.67271,-6.08159 7.24593,-0.99735 7.26343,-1.01445 6.34278,-5.9203 -0.79959,-4.26299 -0.45023,-5.04947 2.59826,-5.86388 6.54077,-1.74965 7.02548,-1.22533 8.10291,8.83828 0.57847,5.40282 1.64707,10.19013 2.37485,10.63979 1.39687,0.86628 54.36165,-5.20905 55.57723,-6.37453 0.38754,-0.39894 0.50723,-3.01486 0.26216,-5.87528 -0.43314,-5.04947 -0.29066,-5.19765 5.01072,-5.19765 5.38116,0 5.4524,-0.057 5.01641,-5.65358 -0.42174,-5.38572 -0.21087,-5.67638 4.45847,-6.12718 2.69514,-0.28496 4.92067,-0.94037 4.94574,-1.51029 0.0247,-0.56991 -3.48219,-30.78125 -7.79316,-67.13743 -6.65784,-56.14829 -7.51614,-66.30593 -5.69969,-67.45603 3.78824,-2.39935 7.33107,-1.52738 8.10109,1.99472 0.41034,1.86933 4.17807,32.91046 8.37745,68.98682 4.19913,36.07692 8.00343,67.46001 8.45363,69.74082 0.7705,3.90393 0.5015,4.149 -4.5788,4.149 -5.29165,0 -5.39765,0.11398 -5.39765,6.03144 0,5.69917 -0.25077,6.032 -4.52344,6.032 -4.27267,0 -4.524,0.34196 -4.524,6.03144 0,5.23185 -0.45024,6.03942 -3.39272,6.089 -6.49427,0.11399 -61.01687,7.03849 -62.47386,7.93896 -0.88907,0.56991 -1.01902,4.05211 -0.33056,8.89527 2.20046,15.46529 2.00896,16.28255 -3.82528,16.28255 -4.74457,0 -5.22216,-0.39894 -5.65473,-4.90129 z"
         style="fill:#000000;fill-opacity:1;stroke-width:1.50790691"
         inkscape:connector-curvature="0" />
      <path
         id="path25"
         d="m 775.01784,-763.01153 c 0,-5.15205 0.21656,-5.37432 5.37318,-5.37432 5.15376,0 5.35381,0.22797 4.90072,4.90129 -0.41604,4.30858 -1.06404,4.95829 -5.37318,5.37433 -4.70068,0.45593 -4.90072,0.22796 -4.90072,-4.9013 z"
         style="fill:#000000;fill-opacity:1;stroke-width:1.50790691"
         inkscape:connector-curvature="0" />
      <path
         id="path23"
         d="m 784.98051,-772.27782 c -2.89917,-7.5554 -4.5052,-7.13822 53.74637,-13.95386 30.0639,-3.51639 55.84907,-6.36997 57.30047,-6.33749 4.2841,0.11399 3.6081,8.84342 -0.754,9.7644 -3.1083,0.65541 -106.18465,12.94226 -108.40795,12.92118 -0.53573,-0.005 -1.38148,-1.08285 -1.88472,-2.39366 z"
         style="fill:#000000;fill-opacity:1;stroke-width:1.50790691"
         inkscape:connector-curvature="0" />
    </g>
    <g
       id="g170"
       transform="translate(-1.0583334,10.054167)">
      <path
         id="path41"
         d="m 60.450779,-320.39038 c 0,-0.6326 7.8747,-22.51915 17.49934,-48.62993 9.62464,-26.11078 18.74862,-51.03669 20.27552,-55.39029 l 2.776191,-7.91673 h -4.442511 c -3.93084,0 -4.44251,0.51293 -4.44251,4.52515 0,4.35417 -0.25133,4.52514 -6.78558,4.52514 -6.53426,0 -6.78558,-0.17097 -6.78558,-4.52514 0,-4.35417 0.25133,-4.52515 6.78558,-4.52515 h 6.78558 v -8.29344 -8.29344 h 6.03163 c 5.221301,0 6.044521,0.45593 6.127621,3.39101 0.0918,3.23713 10.1639,-20.21042 10.36337,-24.12633 0.0528,-1.03725 -1.60039,-1.88642 -3.67381,-1.88642 -3.63442,0 -3.76977,-0.34195 -3.76977,-9.80145 v -9.80087 h -4.52373 -4.523721 v -17.34146 -17.34088 h 4.523721 4.52373 v -11.30887 -11.30945 h 5.27766 c 5.02633,0 5.27767,-0.22797 5.27767,-5.27744 0,-5.15205 0.14362,-5.27744 6.03162,-5.27744 h 6.03163 v -8.29344 -8.29344 h 5.27767 c 4.85883,0 5.27766,-0.34195 5.27766,-4.52514 v -4.52515 h 12.81721 12.81721 v -5.27744 -5.27744 h 15.83302 15.83303 v 5.27744 5.27744 h 12.81693 12.8172 v 4.52515 c 0,4.16609 0.41889,4.52514 5.27767,4.52514 h 5.27766 v 8.29344 c 0,8.20967 0.0457,8.29344 4.52373,8.29344 4.16467,0 4.52372,0.39895 4.52372,5.27744 0,5.24894 0.0359,5.27744 6.78558,5.27744 h 6.78558 v 11.30945 11.30887 h 4.52372 4.52372 v 17.34088 17.34146 h -4.52372 -4.52372 v 9.80087 9.80145 h -6.78558 -6.78558 v 11.30944 11.30945 h -4.52372 c -3.70595,0 -4.52373,0.62121 -4.52373,3.4423 0,2.53613 35.36337,100.74548 44.5043,123.5969 0.98425,2.46204 -0.98721,2.63872 -29.17657,2.63872 h -30.23215 l -5.34172,-9.42473 c -2.93799,-5.18625 -5.35221,-8.23702 -5.36498,-6.78544 -0.0176,2.00611 -1.2887,2.63872 -5.30092,2.63872 -4.85883,0 -5.27766,0.34195 -5.27766,4.52514 v 4.52515 h -15.83303 -15.83302 v -4.52515 c 0,-4.35417 -0.25134,-4.52514 -6.78558,-4.52514 h -6.78559 v -6.78544 -6.78544 h 27.96824 27.96823 l -0.4491,-9.42473 -0.44909,-9.42416 -27.51931,-0.39894 -27.5193,-0.39894 v 5.9904 5.99041 l -8.64682,0.45593 -8.64681,0.45594 -5.30132,16.9596 -5.30131,16.96018 -32.043031,0.005 c -17.62367,0.003 -32.04303,-0.51292 -32.04303,-1.15123 z"
         style="fill:#000000;fill-opacity:1;stroke-width:1.50790691"
         inkscape:connector-curvature="0" />
      <path
         id="path39"
         d="m 206.71777,-390.86012 v -9.80088 h -26.38866 -26.38837 v 9.80088 9.80144 h 26.38837 26.38837 z"
         style="fill:#ffffff;fill-opacity:1;stroke-width:1.50790691"
         inkscape:connector-curvature="0" />
      <path
         id="path37"
         d="m 175.05172,-457.20765 v -33.92777 h -8.29378 c -8.2097,0 -8.29348,-0.0462 -8.29348,-4.52515 v -4.52514 h 21.11069 21.1107 v 4.52514 c 0,4.42256 -0.16755,4.52515 -7.53953,4.52515 h -7.53954 v 33.92777 33.92776 h 11.30931 11.3093 v -4.52514 c 0,-4.42256 0.16756,-4.52515 7.53953,-4.52515 h 7.53954 v -8.29344 -8.29344 h 5.27767 5.27766 v -11.30945 -11.30944 h 4.52372 4.52372 v -9.80145 -9.80087 h 6.78559 6.78558 v -17.34146 -17.34088 h -6.78558 -6.78559 v -11.30887 -11.30945 h -4.52372 c -4.16467,0 -4.52372,-0.39894 -4.52372,-5.27744 0,-5.02667 -0.25133,-5.27744 -5.27766,-5.27744 h -5.27767 v -8.29344 -8.29344 h -12.81721 -12.81721 v -4.52514 -4.52515 h -15.83303 -15.83302 v 4.52515 4.52514 h -12.81721 -12.81721 v 8.29344 8.29344 h -5.27766 c -5.02633,0 -5.27767,0.22797 -5.27767,5.27744 0,5.15206 -0.14362,5.27744 -6.03162,5.27744 h -6.03163 v 11.30945 11.30887 h -5.27767 -5.27766 v 17.34088 17.34146 h 5.40139 5.4014 l -0.50096,10.17816 -0.50096,10.17816 6.40861,-0.51293 6.4086,-0.51292 v 11.46161 11.46104 h 5.19885 5.19884 l 0.45594,7.91616 0.45593,7.91672 5.65467,0.45594 c 5.14572,0.39894 5.65466,0.86627 5.65466,4.90129 v 4.43396 h 11.3093 11.30931 z"
         style="fill:#ffffff;fill-opacity:1;stroke-width:1.50790691"
         inkscape:connector-curvature="0" />
      <path
         id="path35"
         d="m 129.8145,-532.6032 c 0,-6.74953 0.0279,-6.78544 5.27767,-6.78544 4.85883,0 5.27766,-0.34195 5.27766,-4.52514 0,-4.27439 0.33512,-4.52515 6.03163,-4.52515 5.88801,0 6.03163,-0.11398 6.03163,-5.27744 0,-5.24894 0.0359,-5.27744 6.78558,-5.27744 6.74968,0 6.78558,0.0279 6.78558,5.27744 0,5.24894 -0.0359,5.27744 -6.78558,5.27744 -6.53426,0 -6.78558,0.17097 -6.78558,4.52515 0,4.27438 -0.33511,4.52514 -6.03163,4.52514 h -6.03191 v 6.78544 c 0,6.74954 -0.0279,6.78544 -5.27767,6.78544 -5.24974,0 -5.27766,-0.0359 -5.27766,-6.78544 z"
         style="fill:#000000;fill-opacity:1;stroke-width:1.50790691"
         inkscape:connector-curvature="0" />
      <path
         id="path31"
         d="m 285.12894,-418.75588 c 0,-4.35417 -0.25134,-4.52515 -6.78558,-4.52515 -6.53426,0 -6.78559,-0.17097 -6.78559,-4.52514 0,-4.02362 -0.50266,-4.52515 -4.52372,-4.52515 -4.35616,0 -4.52372,-0.22797 -4.52372,-6.78544 0,-6.53467 0.16756,-6.78544 4.52372,-6.78544 4.35617,0 4.52372,0.22797 4.52372,6.78544 v 6.78544 h 6.78559 c 6.53426,0 6.78558,0.17098 6.78558,4.52515 0,4.02362 0.50267,4.52514 4.52372,4.52514 4.02111,0 4.52372,0.51293 4.52372,4.52515 0,4.01792 -0.50267,4.52514 -4.52372,4.52514 -4.02111,0 -4.52372,-0.51292 -4.52372,-4.52514 z"
         style="fill:#000000;fill-opacity:1;stroke-width:1.50790691"
         inkscape:connector-curvature="0" />
      <path
         id="path29"
         d="m 49.895431,-512.24631 v -4.52515 h 15.833028 15.83302 v 4.52515 4.52515 H 65.728169 49.895151 Z"
         style="fill:#000000;fill-opacity:1;stroke-width:1.50790691"
         inkscape:connector-curvature="0" />
      <path
         id="path27"
         d="m 279.09731,-512.24631 v -4.52515 h 17.34065 17.34095 v 4.52515 4.52515 h -17.34095 -17.34094 z"
         style="fill:#000000;fill-opacity:1;stroke-width:1.50790691"
         inkscape:connector-curvature="0" />
      <path
         id="path21"
         d="m 101.16399,-594.42729 v -6.78544 h -6.785591 c -6.53426,0 -6.78558,-0.17098 -6.78558,-4.52515 0,-4.02362 -0.50267,-4.52515 -4.52372,-4.52515 -4.16467,0 -4.52372,-0.39894 -4.52372,-5.27743 0,-4.8557 0.35905,-5.27744 4.52372,-5.27744 4.16467,0 4.52372,0.39894 4.52372,5.27744 0,5.24894 0.0359,5.27743 6.78558,5.27743 6.534261,0 6.785591,0.17098 6.785591,4.52515 0,4.02362 0.50266,4.52515 4.52372,4.52515 4.35616,0 4.52372,0.22796 4.52372,6.78544 0,6.5341 -0.16756,6.78543 -4.52372,6.78543 -4.35617,0 -4.52372,-0.22796 -4.52372,-6.78543 z"
         style="fill:#000000;fill-opacity:1;stroke-width:1.50790691"
         inkscape:connector-curvature="0" />
      <path
         id="path19"
         d="m 259.49423,-594.42729 c 0,-6.53411 0.16756,-6.78544 4.52372,-6.78544 4.02111,0 4.52372,-0.51293 4.52372,-4.52515 0,-4.1661 0.41889,-4.52515 5.27767,-4.52515 5.02633,0 5.27766,-0.22796 5.27766,-5.27743 0,-5.15206 0.14362,-5.27744 6.03164,-5.27744 5.88801,0 6.03162,0.11398 6.03162,5.27744 0,5.15205 -0.14362,5.27743 -6.03162,5.27743 -5.69656,0 -6.03164,0.22797 -6.03164,4.52515 0,4.1661 -0.41889,4.52515 -5.27766,4.52515 -5.24974,0 -5.27767,0.0359 -5.27767,6.78544 0,6.5341 -0.16755,6.78543 -4.52372,6.78543 -4.35616,0 -4.52372,-0.22796 -4.52372,-6.78543 z"
         style="fill:#000000;fill-opacity:1;stroke-width:1.50790691"
         inkscape:connector-curvature="0" />
      <path
         id="path28"
         d="m 175.05143,-631.37107 v -18.09488 h 5.27767 5.27766 v 18.09488 18.09489 h -5.27766 -5.27767 z"
         style="fill:#000000;fill-opacity:1;stroke-width:1.50790691"
         inkscape:connector-curvature="0" />
    </g>
    <g
       id="g990"
       transform="matrix(8.2482804,0,0,-8.2482804,29.869987,-262.97023)" />
    <path
       inkscape:connector-curvature="0"
       style="fill:#000000;fill-opacity:1;stroke-width:1.50790691"
       d="M 595.84135,118.43521 V 14.389213 c 20.2612,0.0272 40.7538,-0.35734 60.265,0.0724 l 0.4046,36.429729 0.4046,36.429123 30.1181,-36.429123 30.1181,-36.429729 h 36.8406 c 34.947,0 36.7235,0.11399 34.5666,2.63872 -1.2504,1.4533 -17.0442,19.602901 -35.097,40.336512 -18.0529,20.73417 -33.137,38.502506 -33.5201,39.486166 -0.3819,0.98597 15.984,29.381099 36.3713,63.106109 20.3874,33.72485 37.068,61.60125 37.068,61.94833 0,0.34195 -16.0515,0.45593 -35.67,0.22796 l -35.6698,-0.39893 -21.9825,-38.0745 c -12.0904,-20.94106 -22.4127,-38.07449 -22.9384,-38.07449 -0.5243,0 -5.4564,5.21475 -10.9573,11.58245 l -10.0015,11.58243 v 26.86878 26.86933 h -30.1587 -30.1582 z"
       id="path55-3"
       sodipodi:nodetypes="cccccccsccccsccssccccccc" />
  </g>
</svg>
