<?xml version="1.0" encoding="UTF-8" standalone="no"?>
<!-- Created with Inkscape (http://www.inkscape.org/) -->

<svg
   xmlns:dc="http://purl.org/dc/elements/1.1/"
   xmlns:cc="http://creativecommons.org/ns#"
   xmlns:rdf="http://www.w3.org/1999/02/22-rdf-syntax-ns#"
   xmlns:svg="http://www.w3.org/2000/svg"
   xmlns="http://www.w3.org/2000/svg"
   xmlns:sodipodi="http://sodipodi.sourceforge.net/DTD/sodipodi-0.dtd"
   xmlns:inkscape="http://www.inkscape.org/namespaces/inkscape"
   width="7.8000002cm"
   height="7.8000002cm"
   viewBox="0 0 7.7999997 7.8000002"
   version="1.1"
   id="svg8"
   inkscape:version="0.92.2 (30a58d1, 2017-08-07)"
   sodipodi:docname="we.svg">
  <defs
     id="defs2" />
  <sodipodi:namedview
     id="base"
     pagecolor="#ffffff"
     bordercolor="#666666"
     borderopacity="1.0"
     inkscape:pageopacity="0"
     inkscape:pageshadow="2"
     inkscape:zoom="0.70710678"
     inkscape:cx="181.56875"
     inkscape:cy="40.749487"
     inkscape:document-units="cm"
     inkscape:current-layer="g1752"
     showgrid="true"
     scale-x="1"
     showguides="true"
     borderlayer="false"
     showborder="true"
     inkscape:showpageshadow="true"
     inkscape:window-width="3066"
     inkscape:window-height="1689"
     inkscape:window-x="134"
     inkscape:window-y="55"
     inkscape:window-maximized="1"
     units="cm" />
  <metadata
     id="metadata5">
    <rdf:RDF>
      <cc:Work
         rdf:about="">
        <dc:format>image/svg+xml</dc:format>
        <dc:type
           rdf:resource="http://purl.org/dc/dcmitype/StillImage" />
        <dc:title></dc:title>
      </cc:Work>
    </rdf:RDF>
  </metadata>
  <g
     inkscape:label="Ebene 1"
     inkscape:groupmode="layer"
     id="layer1"
     transform="translate(0,-282.18)">
    <g
       id="g1752"
       transform="translate(15.998472,-16.069027)">
      <path
         style="fill:#333333;fill-opacity:1;stroke-width:0.01191716"
         d="m -14.632302,303.694 v -0.0953 h -0.190675 -0.190675 v -0.0953 -0.0953 h -0.09534 -0.09534 v -0.10129 -0.1013 h -0.09534 -0.09534 v -0.19067 -0.19068 h -0.101295 -0.101296 v -0.48264 -0.48265 h 0.101296 0.101295 v -0.19067 -0.19068 h 0.09534 0.09534 v -0.0953 -0.0953 h 0.09534 0.09534 v -0.0953 -0.0953 h 0.190675 0.190675 v -0.1013 -0.10129 h 0.482644 0.482646 v 0.10129 0.1013 h 0.196633 0.196633 v -0.1013 -0.10129 h 0.09534 0.09534 v -0.0953 -0.0953 h 0.190674 0.190675 v -0.0953 -0.0953 h 0.482645 0.482644 v 0.0953 0.0953 h 0.190675 0.190674 v 0.0953 0.0953 h 0.09534 0.09534 v 0.10129 0.1013 h 0.196633 0.196633 v -0.1013 -0.10129 h 0.482646 0.4826443 v 0.10129 0.1013 h 0.190675 0.190675 v 0.0953 0.0953 h 0.095337 0.095338 v 0.0953 0.0953 h 0.095337 0.095338 v 0.19068 0.19067 h 0.1012953 0.1012962 v 0.48265 0.48264 h -0.1013072 -0.1012953 v 0.19068 0.19067 h -0.095338 -0.095337 v 0.1013 0.10129 h -0.095338 -0.095337 v 0.0953 0.0953 h -0.190675 -0.190675 v 0.0953 0.0953 h -0.4826443 -0.482646 v -0.0953 -0.0953 h -0.196633 -0.196633 v -0.0953 -0.0953 h -0.09534 -0.09534 v -0.10129 -0.1013 h -0.190674 -0.190675 v 0.1013 0.10129 h -0.482644 -0.482645 v -0.10129 -0.1013 h -0.190675 -0.190674 v 0.1013 0.10129 h -0.09534 -0.09534 v 0.0953 0.0953 h -0.196633 -0.196633 v 0.0953 0.0953 h -0.482646 -0.482644 z m 0.190674,-0.19068 v -0.0953 h 0.101296 0.101296 v 0.0953 0.0953 h 0.286011 0.286013 v -0.0953 -0.0953 h 0.196633 0.196633 v -0.10129 -0.1013 h 0.09534 0.09534 v -0.0953 -0.0953 h 0.190674 0.190675 v 0.0953 0.0953 h 0.482645 0.482644 v -0.0953 -0.0953 h 0.190675 0.190674 v 0.0953 0.0953 h 0.09534 0.09534 v 0.1013 0.10129 h 0.196633 0.196633 v 0.0953 0.0953 h 0.482646 0.4826443 v -0.0953 -0.0953 h 0.190675 0.190675 v -0.10129 -0.1013 h 0.095337 0.095338 v -0.19067 -0.19068 h 0.095337 0.095338 v -0.38731 -0.3873 h -0.095338 -0.095337 v -0.28601 -0.28602 h -0.095338 -0.095337 v -0.0953 -0.0953 h -0.190675 -0.190675 v -0.0953 -0.0953 h -0.4826443 -0.482646 v 0.0953 0.0953 h -0.09534 -0.09534 v 0.0953 0.0953 h 0.09534 0.09534 v 0.28602 0.28601 h 0.09534 0.09534 v 0.10129 0.1013 h -0.09534 -0.09534 v 0.0953 0.0953 h -0.09534 -0.09534 v -0.3873 -0.38731 h -0.101296 -0.101296 v 0.19067 0.19068 h -0.09534 -0.09534 v 0.10129 0.1013 h -0.286011 -0.286012 v -0.1013 -0.10129 h 0.09534 0.09534 v -0.0953 -0.0953 h 0.09534 0.09534 v -0.0953 -0.0953 h -0.190675 -0.190674 v 0.19067 0.19068 h -0.09534 -0.09534 v -0.0953 -0.0953 h -0.101295 -0.101296 v 0.0953 0.0953 h -0.09534 -0.09534 v 0.10129 0.1013 h -0.286012 -0.286011 v -0.1013 -0.10129 h 0.09534 0.09534 v -0.0953 -0.0953 h 0.09534 0.09534 v -0.0953 -0.0953 h -0.190675 -0.190674 v 0.19067 0.19068 h -0.09534 -0.09534 v -0.19068 -0.19067 h -0.101296 -0.101296 v 0.38731 0.3873 h -0.09534 -0.09534 v -0.0953 -0.0953 h -0.09534 -0.09534 v -0.1013 -0.10129 h 0.09534 0.09534 v -0.28601 -0.28602 h 0.09534 0.09534 v -0.0953 -0.0953 h -0.09534 -0.09534 v -0.0953 -0.0953 h -0.482646 -0.482644 v 0.0953 0.0953 h -0.190675 -0.190675 v 0.0953 0.0953 h -0.09534 -0.09534 v 0.28602 0.28601 h -0.09534 -0.09534 v 0.3873 0.38731 h 0.09534 0.09534 v 0.19068 0.19067 h 0.09534 0.09534 v 0.1013 0.10129 h 0.190675 0.190675 v 0.0953 0.0953 h 0.09534 0.09534 z m -0.190674,-0.38731 v -0.29197 h -0.09534 -0.09534 v -0.0953 -0.0953 h 0.09534 0.09534 v 0.0953 0.0953 h 0.482644 0.482646 v -0.0953 -0.0953 h 0.09534 0.09534 v -0.0953 -0.0953 h 0.101296 0.101296 v 0.19068 0.19067 h 0.09534 0.09534 v 0.0953 0.0953 h -0.09534 -0.09534 v -0.0953 -0.0953 h -0.196633 -0.196633 v 0.0953 0.0953 h -0.190675 -0.190674 v 0.19663 0.19663 h -0.09534 -0.09534 v -0.19663 -0.19663 h -0.101296 -0.101296 v 0.19663 0.19663 h -0.09534 -0.09534 z m 3.861159,-0.006 v -0.0953 h -0.09534 -0.09534 v -0.0953 -0.0953 h -0.101296 -0.101296 v 0.0953 0.0953 h -0.09534 -0.09534 v -0.0953 -0.0953 h 0.09534 0.09534 v -0.19067 -0.19068 h 0.101296 0.101296 v 0.19068 0.19067 h 0.09534 0.09534 v 0.0953 0.0953 h 0.482646 0.4826443 v -0.0953 -0.0953 h 0.09534 0.09534 v 0.0953 0.0953 h -0.09534 -0.09534 v 0.0953 0.0953 h -0.4826443 -0.482646 z m -1.930579,-0.38135 v -0.0953 h 0.482645 0.482644 v -0.0953 -0.0953 h 0.09534 0.09534 v 0.0953 0.0953 h -0.09534 -0.09534 v 0.0953 0.0953 h -0.482644 -0.482645 z m -2.121255,-0.57798 v -0.10131 h 0.190675 0.190674 v 0.1013 0.10129 h -0.190674 -0.190675 z m 4.8264503,0 v -0.10131 h 0.190674 0.190675 v 0.1013 0.10129 h -0.190675 -0.190674 z m -1.1678823,-0.86399 v -0.19068 h -0.09534 -0.09534 v -0.10129 -0.1013 h -0.190674 -0.190675 v -0.0953 -0.0953 h -0.482644 -0.482645 v 0.0953 0.0953 h -0.190675 -0.190674 v 0.1013 0.10129 h -0.09534 -0.09534 v 0.19068 0.19067 h 1.054669 1.054668 z"
         id="path1775"
         inkscape:connector-curvature="0" />
    </g>
  </g>
</svg>
