<?xml version="1.0" encoding="UTF-8" standalone="no"?>
<!-- Created with Inkscape (http://www.inkscape.org/) -->

<svg
   xmlns:dc="http://purl.org/dc/elements/1.1/"
   xmlns:cc="http://creativecommons.org/ns#"
   xmlns:rdf="http://www.w3.org/1999/02/22-rdf-syntax-ns#"
   xmlns:svg="http://www.w3.org/2000/svg"
   xmlns="http://www.w3.org/2000/svg"
   xmlns:sodipodi="http://sodipodi.sourceforge.net/DTD/sodipodi-0.dtd"
   xmlns:inkscape="http://www.inkscape.org/namespaces/inkscape"
   width="420mm"
   height="297mm"
   viewBox="0 0 41.999997 29.7"
   version="1.1"
   id="svg8"
   inkscape:version="0.92.3 (2405546, 2018-03-11)"
   sodipodi:docname="we.svg">
  <defs
     id="defs2" />
  <sodipodi:namedview
     id="base"
     pagecolor="#ffffff"
     bordercolor="#666666"
     borderopacity="1.0"
     inkscape:pageopacity="0"
     inkscape:pageshadow="2"
     inkscape:zoom="0.125"
     inkscape:cx="-977.25713"
     inkscape:cy="-29.57527"
     inkscape:document-units="cm"
     inkscape:current-layer="g1752"
     showgrid="true"
     scale-x="1"
     showguides="true"
     borderlayer="false"
     showborder="true"
     inkscape:showpageshadow="true"
     inkscape:window-width="1718"
     inkscape:window-height="1368"
     inkscape:window-x="1713"
     inkscape:window-y="0"
     inkscape:window-maximized="0"
     units="mm" />
  <metadata
     id="metadata5">
    <rdf:RDF>
      <cc:Work
         rdf:about="">
        <dc:format>image/svg+xml</dc:format>
        <dc:type
           rdf:resource="http://purl.org/dc/dcmitype/StillImage" />
        <dc:title></dc:title>
      </cc:Work>
    </rdf:RDF>
  </metadata>
  <g
     inkscape:label="Ebene 1"
     inkscape:groupmode="layer"
     id="layer1"
     transform="translate(0,-260.28)">
    <g
       id="g1752"
       transform="translate(15.998472,-16.069027)">
      <path
         style="fill:#333333;fill-opacity:1;stroke-width:0.06399488"
         d="m -7.8739584,299.67922 v -0.51176 h -1.0239206 -1.02392 v -0.51177 -0.51175 h -0.511974 -0.511973 v -0.54392 -0.54399 h -0.511975 -0.511973 v -1.02389 -1.02395 h -0.543952 -0.543957 v -2.59176 -2.59182 h 0.543957 0.543952 v -1.02389 -1.02395 h 0.511973 0.511975 v -0.51177 -0.51175 h 0.511973 0.511974 v -0.51176 -0.51176 h 1.02392 1.0239206 v -0.54397 -0.54393 h 2.5917874 2.5917981 v 0.54393 0.54397 h 1.0559148 1.0559147 v -0.54397 -0.54393 h 0.5119737 0.5119736 v -0.51176 -0.51176 H 1.469319 2.4932395 v -0.51176 -0.51176 h 2.5917927 2.5917875 v 0.51176 0.51176 h 1.0239204 1.0239143 v 0.51176 0.51176 h 0.5119746 0.511974 v 0.54393 0.54397 h 1.055914 1.055915 v -0.54397 -0.54393 h 2.591798 2.591789 v 0.54393 0.54397 h 1.023921 1.02392 v 0.51176 0.51176 h 0.511958 0.511963 v 0.51175 0.51177 h 0.511957 0.511963 v 1.02395 1.02389 h 0.543954 0.543958 v 2.59182 2.59176 h -0.544018 -0.543953 v 1.02395 1.02389 h -0.511963 -0.511957 v 0.54399 0.54392 h -0.511964 -0.511957 v 0.51175 0.51177 H 19.06788 18.04396 v 0.51176 0.51175 h -2.591789 -2.591798 v -0.51175 -0.51176 h -1.055914 -1.055915 v -0.51177 -0.51175 H 10.236569 9.724596 v -0.54392 -0.54399 H 8.700681 7.6767605 v 0.54399 0.54392 H 5.0849732 2.4931805 v -0.54392 -0.54399 H 1.4692599 0.4453449 v 0.54399 0.54392 h -0.5119737 -0.5119736 v 0.51175 0.51177 h -1.0559148 -1.0559147 v 0.51176 0.51175 h -2.5917982 -2.5917874 z m 1.023915,-1.02395 v -0.51176 h 0.5439573 0.5439572 v 0.51176 0.51176 h 1.5358727 1.5358833 v -0.51176 -0.51176 h 1.0559148 1.0559147 v -0.54392 -0.54398 h 0.5119737 0.5119736 v -0.51177 -0.51175 H 1.469319 2.4932395 v 0.51175 0.51177 h 2.5917927 2.5917875 v -0.51177 -0.51175 h 1.0239204 1.0239143 v 0.51175 0.51177 h 0.5119746 0.511974 v 0.54398 0.54392 h 1.055914 1.055915 v 0.51176 0.51176 h 2.591798 2.591789 v -0.51176 -0.51176 h 1.023921 1.02392 v -0.54392 -0.54398 h 0.511958 0.511963 v -1.0239 -1.02394 h 0.511957 0.511963 v -2.07985 -2.07979 h -0.511963 -0.511957 v -1.53587 -1.53592 H 20.603818 20.09186 v -0.51176 -0.51176 h -1.02392 -1.023921 v -0.51176 -0.51176 H 15.45223 12.860432 v 0.51176 0.51176 h -0.511973 -0.511974 v 0.51176 0.51176 h 0.511974 0.511973 v 1.53592 1.53587 h 0.511973 0.511974 v 0.54392 0.54398 h -0.511974 -0.511973 v 0.51176 0.51176 h -0.511973 -0.511974 v -2.07979 -2.07985 H 11.292527 10.74857 v 1.02389 1.02395 H 10.236597 9.7246225 v 0.54392 0.54398 H 8.1887503 6.6528723 v -0.54398 -0.54392 h 0.5119736 0.5119738 v -0.51176 -0.51176 h 0.5119736 0.5119736 v -0.51176 -0.51175 H 7.6768465 6.6529314 v 1.02389 1.02395 H 6.1409577 5.6289841 v -0.51176 -0.51176 H 5.0850322 4.541075 v 0.51176 0.51176 H 4.0291013 3.5171277 v 0.54392 0.54398 H 1.9812497 0.4453771 v -0.54398 -0.54392 H 0.95735069 1.4693243 v -0.51176 -0.51176 H 1.981298 2.4932717 v -0.51176 -0.51176 H 1.4693512 0.4454362 v 1.02389 1.02395 h -0.5119737 -0.5119737 v -1.02395 -1.02389 h -0.5439571 -0.5439573 v 2.07984 2.0798 h -0.5119736 -0.5119737 v -0.51176 -0.51176 h -0.5119737 -0.5119736 v -0.54398 -0.54392 h 0.5119736 0.5119737 v -1.53587 -1.53592 h 0.5119737 0.5119736 v -0.51176 -0.51176 h -0.5119736 -0.5119737 v -0.51175 -0.51177 H -5.282171 -7.8739584 v 0.51177 0.51175 h -1.0239206 -1.02392 v 0.51176 0.51176 h -0.511974 -0.511973 v 1.53592 1.53587 h -0.511975 -0.511973 v 2.07979 2.07984 h 0.511973 0.511975 v 1.02395 1.0239 h 0.511973 0.511974 v 0.54397 0.54393 h 1.02392 1.0239206 v 0.51176 0.51176 h 0.5119736 0.5119736 z m -1.023915,-2.07985 v -1.56787 H -8.385932 -8.897905 v -0.51176 -0.51176 h 0.511973 0.5119736 v 0.51176 0.51176 h 2.5917874 2.5917981 v -0.51176 -0.51176 h 0.5119737 0.5119736 v -0.51176 -0.51175 h 0.5439573 0.5439571 v 1.02394 1.0239 h 0.5119737 0.5119737 v 0.51175 0.51176 h -0.5119737 -0.5119737 v -0.51176 -0.51175 h -1.0559147 -1.0559147 v 0.51175 0.51176 h -1.0239206 -1.023915 v 1.0559 1.0559 h -0.5119736 -0.5119737 v -1.0559 -1.0559 H -6.3060807 -6.850038 v 1.0559 1.0559 h -0.5119736 -0.5119736 z m 20.7343364,-0.0322 v -0.51176 h -0.511973 -0.511974 v -0.51176 -0.51175 h -0.543958 -0.543957 v 0.51175 0.51176 H 10.236543 9.7245687 v -0.51176 -0.51175 h 0.5119743 0.511973 v -1.0239 -1.02395 h 0.543957 0.543958 v 1.02395 1.0239 h 0.511974 0.511973 v 0.51175 0.51176 h 2.591799 2.591788 v -0.51176 -0.51175 h 0.511974 0.511973 v 0.51175 0.51176 h -0.511973 -0.511974 v 0.51176 0.51176 H 15.452177 12.860378 Z M 2.4932127,294.49537 v -0.51177 h 2.5917927 2.5917873 v -0.51176 -0.51176 h 0.5119738 0.5119736 v 0.51176 0.51176 H 8.1887665 7.6767927 v 0.51177 0.51175 H 5.0850054 2.4932127 Z M -8.897879,291.39162 v -0.54403 h 1.0239206 1.023915 v 0.54397 0.54393 h -1.023915 -1.0239206 z m 25.917929,0 v -0.54403 h 1.023915 1.023921 v 0.54397 0.54393 H 18.043965 17.02005 Z m -6.271501,-4.63961 v -1.02394 H 10.236575 9.7246015 v -0.54393 -0.54398 H 8.7006864 7.6767659 v -0.51175 -0.51176 H 5.0849786 2.4931857 v 0.51176 0.51175 H 1.4692653 0.4453503 v 0.54398 0.54393 H -0.0666234 -0.578597 v 1.02394 1.0239 h 5.6635487 5.6635433 z"
         id="path1775"
         inkscape:connector-curvature="0" />
    </g>
  </g>
</svg>
