<?xml version="1.0" encoding="UTF-8" standalone="no"?>
<!-- Created with Inkscape (http://www.inkscape.org/) -->

<svg
   xmlns:dc="http://purl.org/dc/elements/1.1/"
   xmlns:cc="http://creativecommons.org/ns#"
   xmlns:rdf="http://www.w3.org/1999/02/22-rdf-syntax-ns#"
   xmlns:svg="http://www.w3.org/2000/svg"
   xmlns="http://www.w3.org/2000/svg"
   xmlns:sodipodi="http://sodipodi.sourceforge.net/DTD/sodipodi-0.dtd"
   xmlns:inkscape="http://www.inkscape.org/namespaces/inkscape"
   width="7.8000002cm"
   height="7.8000002cm"
   viewBox="0 0 7.7999997 7.8000002"
   version="1.1"
   id="svg8"
   inkscape:version="0.92.2 (30a58d1, 2017-08-07)"
   sodipodi:docname="when_where.svg">
  <defs
     id="defs2" />
  <sodipodi:namedview
     id="base"
     pagecolor="#ffffff"
     bordercolor="#666666"
     borderopacity="1.0"
     inkscape:pageopacity="0"
     inkscape:pageshadow="2"
     inkscape:zoom="1.4142136"
     inkscape:cx="231.37312"
     inkscape:cy="11.002161"
     inkscape:document-units="cm"
     inkscape:current-layer="g1999"
     showgrid="true"
     scale-x="1"
     showguides="true"
     borderlayer="false"
     showborder="true"
     inkscape:showpageshadow="true"
     inkscape:window-width="3066"
     inkscape:window-height="1689"
     inkscape:window-x="134"
     inkscape:window-y="55"
     inkscape:window-maximized="1"
     units="cm" />
  <metadata
     id="metadata5">
    <rdf:RDF>
      <cc:Work
         rdf:about="">
        <dc:format>image/svg+xml</dc:format>
        <dc:type
           rdf:resource="http://purl.org/dc/dcmitype/StillImage" />
        <dc:title></dc:title>
      </cc:Work>
    </rdf:RDF>
  </metadata>
  <g
     inkscape:label="Ebene 1"
     inkscape:groupmode="layer"
     id="layer1"
     transform="translate(0,-282.18)">
    <g
       id="g1752"
       transform="translate(15.998472,-16.069027)">
      <g
         id="g1999"
         transform="translate(0.13096205,-0.72964581)">
        <path
           style="fill:#606060;fill-opacity:1;stroke-width:0.02645833"
           d="m -13.197754,307.96105 c 0,-0.0154 0.01191,-0.0207 0.02646,-0.0117 0.01455,0.009 0.02646,0.0216 0.02646,0.028 0,0.006 -0.01191,0.0117 -0.02646,0.0117 -0.01455,0 -0.02646,-0.0126 -0.02646,-0.028 z"
           id="path2003"
           inkscape:connector-curvature="0" />
        <path
           style="fill:#000000;fill-opacity:1;stroke-width:0.01342274"
           d="m -10.290485,305.75103 v -0.20135 h -0.107382 -0.107382 v -0.21476 -0.21476 h -0.107382 -0.107382 v -0.20135 -0.20133 h -0.107382 -0.107382 v -0.21477 -0.21476 h -0.10067 -0.100671 v -0.20805 -0.20806 h -0.100671 -0.10067 v -0.20805 -0.20806 h -0.107382 -0.107382 v -0.21476 -0.21476 h -0.107382 -0.107382 v -0.30872 -0.30872 h 0.107382 0.107382 v -0.20806 -0.20805 h 0.107382 0.107382 v -0.10738 -0.10739 h 0.10067 0.100671 v -0.10066 -0.10068 h 0.100671 0.10067 v -0.10738 -0.10738 h 0.214764 0.214764 v -0.10738 -0.10739 h 0.308723 0.3087233 v 0.10739 0.10738 h 0.214764 0.214764 v 0.10738 0.10738 h 0.107382 0.107382 v 0.10068 0.10066 h 0.09396 0.09396 v 0.10739 0.10738 h 0.107382 0.107381 v 0.20805 0.20806 h 0.107382 0.107382 v 0.30872 0.30872 h -0.107382 -0.107382 v 0.21476 0.21476 h -0.107381 -0.107382 v 0.20806 0.20805 h -0.09396 -0.09396 v 0.20806 0.20805 h -0.107382 -0.107382 v 0.21476 0.21477 h -0.107382 -0.107382 v 0.20133 0.20135 h -0.107382 -0.107382 v 0.21476 0.21476 h -0.10067 -0.1006713 v 0.20135 0.20134 h -0.10067 -0.100671 z m 0.201341,-2.61744 v -0.10738 h 0.1006713 0.10067 v -0.10067 -0.10067 h 0.107382 0.107382 v -0.10067 -0.10067 h -0.107382 -0.107382 v -0.10739 -0.10737 h -0.10067 -0.1006713 v -0.10739 -0.10738 h -0.10067 -0.100671 v 0.10738 0.10739 h -0.107382 -0.107382 v 0.10737 0.10739 h -0.107382 -0.107382 v 0.10067 0.10067 h 0.107382 0.107382 v 0.10067 0.10067 h 0.107382 0.107382 v 0.10738 0.10738 h 0.100671 0.10067 z m -4.776399,2.32048 c -0.03133,-0.16332 -0.05453,-0.29937 -0.05157,-0.30234 0.003,-0.003 0.04401,-0.012 0.09119,-0.02 0.04719,-0.008 0.0906,-0.0191 0.09647,-0.0245 0.0059,-0.005 -0.03238,-0.23158 -0.08499,-0.50266 -0.05262,-0.27108 -0.09276,-0.50047 -0.0892,-0.50975 0.0036,-0.009 0.04934,-0.0245 0.101726,-0.0339 0.08676,-0.0155 0.09471,-0.0196 0.0892,-0.046 -0.01273,-0.061 -0.03413,-0.17146 -0.03413,-0.17608 0,-0.003 0.04228,-0.0124 0.09396,-0.0216 0.105332,-0.0188 0.103291,-0.0152 0.07862,-0.13809 -0.0084,-0.042 -0.0118,-0.0799 -0.0075,-0.0843 0.0043,-0.005 0.04863,-0.0164 0.09845,-0.0268 0.04981,-0.0105 0.09201,-0.0204 0.09376,-0.0222 0.0018,-0.002 -0.0054,-0.0484 -0.01598,-0.10369 -0.01054,-0.0553 -0.01917,-0.10116 -0.01918,-0.10196 -9e-6,-10e-4 0.04529,-0.009 0.100654,-0.0187 0.05537,-0.009 0.100706,-0.0239 0.100748,-0.0321 4.1e-5,-0.008 -0.02529,-0.14626 -0.05631,-0.30683 -0.04478,-0.23184 -0.06068,-0.29185 -0.07726,-0.29147 -0.01148,2.6e-4 -0.05862,0.009 -0.104762,0.0185 -0.04614,0.01 -0.08389,0.0169 -0.08389,0.0154 0,-0.009 -0.02951,-0.16591 -0.03453,-0.18323 -0.0055,-0.019 -0.01592,-0.0194 -0.09657,-0.004 -0.04971,0.01 -0.09675,0.0177 -0.104541,0.0179 -0.0078,2.8e-4 -0.02188,-0.0454 -0.03132,-0.10163 l -0.01716,-0.10212 -0.0425,0.009 c -0.162567,0.0326 -0.16336,0.0322 -0.17746,-0.0806 -0.01252,-0.10021 -0.01247,-0.10018 -0.124624,-0.0771 -0.05404,0.0111 -0.09965,0.0182 -0.101354,0.0157 -0.0017,-0.003 -0.04653,-0.23054 -0.09962,-0.50678 -0.05309,-0.27624 -0.0994,-0.50512 -0.102901,-0.50863 -0.0035,-0.004 -0.05095,0.003 -0.10543,0.0133 l -0.09906,0.0197 -0.01454,-0.0748 c -0.06397,-0.32933 -0.09927,-0.52639 -0.09503,-0.53047 0.0027,-0.003 0.681533,-0.13561 1.508374,-0.29545 0.826841,-0.15984 1.515805,-0.29368 1.531032,-0.29743 0.02603,-0.006 0.03071,0.009 0.07839,0.25426 0.02789,0.14359 0.05167,0.28107 0.05285,0.30551 l 0.0021,0.0444 -0.102171,0.0208 c -0.09344,0.019 -0.101241,0.0231 -0.09129,0.0477 0.006,0.0148 0.04495,0.20503 0.08659,0.42281 0.04164,0.21778 0.08343,0.43621 0.09286,0.48539 l 0.01715,0.0894 -0.08882,0.0157 c -0.04885,0.009 -0.09572,0.0177 -0.104163,0.0203 -0.01127,0.004 -0.01028,0.0288 0.0038,0.0957 0.01049,0.05 0.01626,0.0983 0.01282,0.10728 -0.0034,0.009 -0.03892,0.0204 -0.07885,0.0254 -0.108429,0.0136 -0.108309,0.0133 -0.08631,0.12989 l 0.01899,0.1006 -0.105753,0.0171 c -0.08668,0.0141 -0.10464,0.0211 -0.09959,0.039 0.01477,0.0523 0.03674,0.17879 0.03189,0.18364 -0.0029,0.003 -0.04607,0.0138 -0.09589,0.0243 -0.04982,0.0104 -0.09358,0.022 -0.09726,0.0257 -0.0057,0.006 0.09382,0.55278 0.108357,0.5954 0.0038,0.0111 0.03122,0.01 0.101239,-0.005 0.05282,-0.0109 0.09925,-0.0165 0.103164,-0.0126 0.0039,0.004 0.01567,0.0479 0.02611,0.0977 0.01044,0.0498 0.02138,0.093 0.0243,0.0959 0.0048,0.005 0.13094,-0.017 0.183107,-0.0317 0.01704,-0.005 0.02475,0.0135 0.0385,0.0915 0.0095,0.0536 0.01941,0.10134 0.02212,0.10599 0.0027,0.005 0.04519,3e-5 0.09439,-0.0103 0.04921,-0.0103 0.09224,-0.016 0.09564,-0.0126 0.0034,0.004 0.01472,0.0469 0.02516,0.0967 0.01044,0.0498 0.02171,0.0933 0.02505,0.0966 0.0033,0.004 0.05054,-0.003 0.104904,-0.0136 l 0.09884,-0.0197 0.0229,0.12178 c 0.03502,0.18629 0.173215,0.89999 0.174759,0.90258 7.61e-4,0.001 0.04561,-0.007 0.0997,-0.018 0.05408,-0.0111 0.100871,-0.0177 0.103972,-0.0146 0.0129,0.0129 0.117387,0.58741 0.10846,0.59634 -0.0092,0.009 -2.998376,0.59299 -3.043066,0.59435 -0.01653,5e-4 -0.0325,-0.0603 -0.07777,-0.29632 z m 1.434135,-0.17177 c 0.535232,-0.10335 0.99429,-0.19106 1.020129,-0.19491 0.07107,-0.0106 0.21533,-0.0438 0.222866,-0.0514 0.0089,-0.009 -0.02182,-0.18801 -0.03458,-0.20186 -0.0055,-0.006 -0.511211,0.0861 -1.123795,0.2047 -0.612583,0.11855 -1.118467,0.21555 -1.124186,0.21555 -0.0057,0 -0.0062,0.0226 -0.0012,0.0503 0.02545,0.13842 0.03682,0.17597 0.05172,0.17088 0.0087,-0.003 0.453751,-0.09 0.988983,-0.1933 z m -0.674386,-0.28915 c 0.0019,-0.002 -0.0051,-0.0477 -0.01545,-0.10241 -0.0104,-0.0547 -0.01757,-0.10088 -0.01592,-0.10264 0.0016,-0.002 0.04597,-0.0113 0.09851,-0.0213 l 0.09552,-0.0181 0.01538,0.0912 c 0.0085,0.0502 0.01169,0.0972 0.0072,0.10445 -0.0045,0.007 0.0025,0.0113 0.01566,0.009 0.01311,-0.003 0.06764,-0.0117 0.121163,-0.0206 0.05352,-0.009 0.09731,-0.0172 0.0973,-0.0184 -10e-6,-0.001 -0.0086,-0.0474 -0.01918,-0.10264 -0.01054,-0.0553 -0.01765,-0.10202 -0.0158,-0.10387 0.0019,-0.002 0.04595,-0.0114 0.098,-0.0213 l 0.09463,-0.0179 0.01627,0.091 c 0.0089,0.0501 0.01238,0.0973 0.0076,0.10498 -0.0048,0.008 -0.0068,0.0139 -0.0045,0.0139 0.01431,0 0.218015,-0.0416 0.221678,-0.0452 0.0039,-0.004 -0.0061,-0.0626 -0.03015,-0.17819 -0.0054,-0.026 0.0024,-0.0303 0.0789,-0.0436 0.0467,-0.008 0.09141,-0.0148 0.09936,-0.0148 0.008,0 0.02204,0.0438 0.0313,0.0973 0.0093,0.0535 0.01778,0.0987 0.01893,0.10049 0.0027,0.004 0.211913,-0.0359 0.217713,-0.0417 0.0024,-0.003 -0.0047,-0.048 -0.01591,-0.1013 -0.0112,-0.0532 -0.02037,-0.0988 -0.02037,-0.10129 0,-0.005 0.159247,-0.034 0.184444,-0.034 0.008,0 0.02204,0.0438 0.0313,0.0973 0.0093,0.0535 0.01781,0.0988 0.019,0.10056 0.0025,0.004 0.349969,-0.0612 0.387555,-0.0724 0.02111,-0.006 0.02364,-0.0161 0.01635,-0.0631 -0.01166,-0.0752 -0.141719,-0.74967 -0.148275,-0.76899 -0.0039,-0.0113 -0.02916,-0.0104 -0.09581,0.004 -0.103914,0.0218 -0.106206,0.0204 -0.119394,-0.0755 -0.01329,-0.0967 -0.01857,-0.10068 -0.108359,-0.0826 -0.125152,0.0251 -0.120627,0.0279 -0.139962,-0.0851 -0.0095,-0.0554 -0.01899,-0.10067 -0.02116,-0.10067 -0.0022,0 -0.04751,0.009 -0.100772,0.0204 -0.05326,0.0112 -0.09881,0.0184 -0.101216,0.016 -0.0024,-0.003 -0.01292,-0.0452 -0.02336,-0.095 -0.01044,-0.0498 -0.02253,-0.0941 -0.02686,-0.0984 -0.0043,-0.005 -0.04224,-10e-4 -0.08426,0.007 -0.124077,0.0249 -0.119702,0.0276 -0.13902,-0.0853 -0.0095,-0.0554 -0.01899,-0.10067 -0.02115,-0.10067 -0.0022,0 -0.04751,0.009 -0.100773,0.0204 -0.05326,0.0112 -0.09904,0.0182 -0.101734,0.0155 -0.0066,-0.007 -0.111618,-0.54671 -0.111779,-0.57489 -9.4e-5,-0.0172 0.02214,-0.0261 0.09719,-0.0391 0.05352,-0.009 0.09893,-0.0179 0.100907,-0.0193 0.002,-0.002 -0.0057,-0.0468 -0.01709,-0.10085 -0.02355,-0.11193 -0.02285,-0.11315 0.07277,-0.12692 0.126403,-0.0182 0.120334,-0.0122 0.100031,-0.0985 -0.03049,-0.12954 -0.03038,-0.12977 0.06946,-0.14817 0.0483,-0.009 0.0936,-0.0126 0.10067,-0.008 0.01699,0.0105 0.01569,-0.01 -0.0073,-0.11446 -0.01056,-0.048 -0.01941,-0.0913 -0.01966,-0.0964 -2.6e-4,-0.005 0.03426,-0.016 0.07671,-0.0244 0.131966,-0.0262 0.128231,-0.0237 0.11894,-0.0786 -0.0046,-0.0269 -0.01195,-0.0709 -0.01644,-0.0978 l -0.0082,-0.0489 0.09544,-0.0161 c 0.05249,-0.009 0.09539,-0.0201 0.09534,-0.025 -2.38e-4,-0.0201 -0.160305,-0.82474 -0.164998,-0.82943 -0.0028,-0.003 -0.225027,0.0374 -0.493823,0.0894 -0.268796,0.052 -0.630665,0.12196 -0.804154,0.15547 -0.514636,0.0994 -0.711366,0.13757 -0.835566,0.16218 -0.0873,0.0173 -0.117277,0.0286 -0.116777,0.0439 3.69e-4,0.0114 0.03557,0.1988 0.07822,0.41659 0.08782,0.44841 0.06391,0.40496 0.210831,0.38311 l 0.06825,-0.0101 0.01495,0.0902 c 0.0082,0.0496 0.01738,0.0927 0.02035,0.0956 0.003,0.003 0.04898,-0.004 0.102242,-0.015 0.05326,-0.0112 0.09902,-0.0203 0.101695,-0.0203 0.0027,0 0.01217,0.0453 0.0211,0.10067 0.01823,0.11302 0.01382,0.1103 0.138154,0.0853 0.04201,-0.008 0.07993,-0.0118 0.08426,-0.007 0.0043,0.005 0.01642,0.0487 0.02686,0.0985 0.01044,0.0498 0.02051,0.0921 0.02237,0.094 0.0019,0.002 0.02738,-0.002 0.05671,-0.008 0.02933,-0.006 0.07511,-0.015 0.101722,-0.0196 l 0.04839,-0.008 0.0175,0.10232 0.0175,0.10233 0.04819,-0.008 c 0.02651,-0.005 0.07356,-0.012 0.104553,-0.0165 0.06649,-0.01 0.05217,-0.047 0.122954,0.32011 l 0.051,0.26448 -0.06146,0.013 c -0.0338,0.007 -0.08427,0.0172 -0.112147,0.0223 -0.03492,0.006 -0.04702,0.014 -0.03891,0.0246 0.0099,0.0128 0.04261,0.1536 0.04261,0.18334 0,0.005 -0.0453,0.017 -0.100671,0.0265 -0.05537,0.009 -0.100448,0.0239 -0.100177,0.0321 2.72e-4,0.008 0.0083,0.0554 0.01794,0.10498 l 0.01745,0.0901 -0.07498,0.0151 c -0.146202,0.0293 -0.133199,0.0158 -0.113476,0.1177 0.0096,0.0494 0.01759,0.0964 0.01786,0.1046 2.71e-4,0.008 -0.04537,0.0227 -0.101433,0.0323 l -0.101925,0.0174 0.0083,0.0415 c 0.03205,0.15983 0.0314,0.16139 -0.07293,0.17574 -0.03393,0.005 -0.06843,0.0126 -0.07668,0.0178 -0.01068,0.007 -0.0039,0.0667 0.02357,0.20885 0.02121,0.10977 0.03786,0.20335 0.03699,0.20797 -8.63e-4,0.005 0.002,0.0174 0.0065,0.0285 0.0044,0.0111 0.02397,0.10511 0.04344,0.20896 l 0.03542,0.18883 0.203652,-0.0395 c 0.112009,-0.0217 0.20521,-0.0408 0.207114,-0.0424 z m 0.151753,-0.35025 c -0.0087,-0.0497 -0.01088,-0.0947 -0.0049,-0.1 0.01377,-0.0122 0.167647,-0.0422 0.175622,-0.0342 0.0052,0.005 0.04148,0.16093 0.04276,0.18357 2.59e-4,0.005 -0.0252,0.0123 -0.05658,0.0171 -0.03138,0.005 -0.07596,0.0122 -0.09908,0.0163 l -0.04204,0.008 z m 0.415422,-0.0789 c -0.009,-0.0475 -0.01266,-0.0922 -0.0082,-0.0994 0.0066,-0.0107 0.110618,-0.0333 0.161725,-0.0353 0.0098,-3.6e-4 0.04101,0.12152 0.04683,0.18271 6.6e-4,0.007 -0.144347,0.0383 -0.176603,0.0383 -0.0041,0 -0.01478,-0.0389 -0.02374,-0.0863 z m 0.402398,-0.0821 c -0.0091,-0.0483 -0.01314,-0.0913 -0.009,-0.0955 0.0099,-0.01 0.175081,-0.0444 0.181594,-0.0379 0.0046,0.005 0.04067,0.16268 0.04177,0.18291 4.17e-4,0.008 -0.146518,0.0383 -0.18367,0.0383 -0.0078,0 -0.02162,-0.0395 -0.03073,-0.0879 z m -0.636802,-0.0217 c -0.02267,-0.0993 -0.03467,-0.16292 -0.03132,-0.16597 0.0021,-0.002 0.04681,-0.0122 0.09935,-0.0229 l 0.09554,-0.0195 0.01671,0.0935 c 0.01915,0.10714 0.01775,0.10938 -0.0775,0.12366 -0.03294,0.005 -0.06793,0.0121 -0.07775,0.0158 -0.01082,0.004 -0.02068,-0.006 -0.02503,-0.0246 z m 0.403999,-0.0739 c -0.004,-0.0136 -0.01113,-0.0488 -0.01586,-0.0783 -0.0047,-0.0295 -0.01117,-0.0632 -0.0143,-0.0748 -0.0045,-0.0165 0.01288,-0.0245 0.0799,-0.0369 0.04708,-0.009 0.09177,-0.0158 0.09931,-0.0158 0.01571,0 0.05028,0.16623 0.03853,0.18525 -0.0043,0.007 -0.03357,0.0166 -0.06511,0.0217 -0.03154,0.005 -0.07037,0.0124 -0.08628,0.0163 -0.02043,0.005 -0.03107,-2e-5 -0.0362,-0.0174 z m -0.250538,-0.2279 c -0.0089,-0.0432 -0.02691,-0.12815 -0.04005,-0.1887 l -0.02389,-0.11009 0.07571,-0.015 c 0.04164,-0.008 0.08489,-0.0175 0.09612,-0.0207 0.0163,-0.005 0.0278,0.03 0.05714,0.17207 0.02021,0.0978 0.03669,0.18455 0.03664,0.19284 -5.3e-5,0.008 -0.02275,0.0187 -0.05043,0.0231 -0.02768,0.005 -0.0694,0.0119 -0.09271,0.0165 l -0.04238,0.009 z m -0.36135,-1.8577 c -0.0201,-0.11246 -0.01965,-0.11311 0.08827,-0.12659 0.03935,-0.005 0.07527,-0.015 0.07982,-0.0223 0.0046,-0.007 9.13e-4,-0.0525 -0.0081,-0.10034 -0.009,-0.0478 -0.01298,-0.0904 -0.0088,-0.0946 0.0042,-0.004 0.04562,-0.0155 0.09206,-0.0253 0.09628,-0.0201 0.09825,-0.0188 0.11121,0.0732 0.0048,0.0338 0.01156,0.0715 0.0151,0.0837 0.0053,0.0182 -0.01089,0.0253 -0.08862,0.0392 -0.05228,0.009 -0.09821,0.0221 -0.102072,0.0284 -0.0061,0.01 0.01207,0.12484 0.02963,0.18706 0.0047,0.0167 -0.007,0.0237 -0.05126,0.0305 -0.03157,0.005 -0.07597,0.0122 -0.09868,0.0162 l -0.04129,0.007 z m -0.241741,-0.13868 c -0.02815,-0.13898 -0.03126,-0.13184 0.0662,-0.15196 0.04787,-0.01 0.09352,-0.0155 0.101446,-0.0124 0.01414,0.005 0.05288,0.18087 0.04228,0.19147 -0.003,0.003 -0.04829,0.0136 -0.100696,0.0235 l -0.09529,0.0182 z m -0.254038,-0.19121 c -0.009,-0.0488 -0.0134,-0.0918 -0.0098,-0.0955 0.0071,-0.007 0.187264,-0.043 0.192313,-0.0384 0.0017,0.002 0.01159,0.0436 0.02205,0.0936 0.01399,0.0667 0.01497,0.0921 0.0037,0.0956 -0.0272,0.009 -0.157053,0.0335 -0.174757,0.0335 -0.01055,0 -0.02346,-0.0342 -0.03352,-0.0889 z m 0.416105,-0.0805 c -0.009,-0.0489 -0.0134,-0.0918 -0.0098,-0.0954 0.0037,-0.004 0.04597,-0.014 0.09409,-0.023 l 0.08749,-0.0164 0.01484,0.075 c 0.0082,0.0412 0.01752,0.0845 0.02079,0.0961 0.0047,0.0166 -0.01243,0.0245 -0.07965,0.0369 -0.04708,0.009 -0.09141,0.0158 -0.09851,0.0158 -0.0071,0 -0.02028,-0.04 -0.02928,-0.0889 z m 0.424301,-5e-4 c -0.0036,-0.006 -0.01074,-0.0406 -0.01597,-0.0766 -0.0052,-0.036 -0.01229,-0.0727 -0.01571,-0.0816 -0.0042,-0.0108 0.02541,-0.0218 0.08919,-0.0332 0.05247,-0.009 0.09805,-0.0144 0.101294,-0.0112 0.01081,0.0108 0.03417,0.15801 0.02693,0.16972 -0.0039,0.006 -0.03292,0.0156 -0.06446,0.0206 -0.03154,0.005 -0.07028,0.0123 -0.08608,0.0163 -0.01581,0.004 -0.03165,0.002 -0.0352,-0.004 z m -0.472971,-1.15198 c 0.568453,-0.10977 1.038396,-0.20364 1.044317,-0.2086 0.01082,-0.009 -0.01438,-0.17417 -0.03059,-0.2004 -0.0057,-0.009 -0.221504,0.0275 -0.632008,0.10756 -0.342832,0.0669 -0.843798,0.1644 -1.11326,0.21671 -0.269462,0.0523 -0.493542,0.0988 -0.497955,0.10328 -0.0044,0.005 5.07e-4,0.0542 0.01097,0.1104 l 0.019,0.10223 0.08298,-0.0158 c 0.04564,-0.009 0.548082,-0.10561 1.116535,-0.21538 z"
           id="path2001"
           inkscape:connector-curvature="0" />
      </g>
    </g>
  </g>
</svg>
