<?xml version="1.0" encoding="UTF-8" standalone="no"?>
<!-- Created with Inkscape (http://www.inkscape.org/) -->

<svg
   xmlns:dc="http://purl.org/dc/elements/1.1/"
   xmlns:cc="http://creativecommons.org/ns#"
   xmlns:rdf="http://www.w3.org/1999/02/22-rdf-syntax-ns#"
   xmlns:svg="http://www.w3.org/2000/svg"
   xmlns="http://www.w3.org/2000/svg"
   xmlns:sodipodi="http://sodipodi.sourceforge.net/DTD/sodipodi-0.dtd"
   xmlns:inkscape="http://www.inkscape.org/namespaces/inkscape"
   width="7.8000002cm"
   height="7.8000002cm"
   viewBox="0 0 7.7999997 7.8000002"
   version="1.1"
   id="svg8"
   inkscape:version="0.92.2 (30a58d1, 2017-08-07)"
   sodipodi:docname="who_she.svg">
  <defs
     id="defs2" />
  <sodipodi:namedview
     id="base"
     pagecolor="#ffffff"
     bordercolor="#666666"
     borderopacity="1.0"
     inkscape:pageopacity="0"
     inkscape:pageshadow="2"
     inkscape:zoom="1.4142136"
     inkscape:cx="231.37312"
     inkscape:cy="11.002161"
     inkscape:document-units="cm"
     inkscape:current-layer="g1752"
     showgrid="true"
     scale-x="1"
     showguides="true"
     borderlayer="false"
     showborder="true"
     inkscape:showpageshadow="true"
     inkscape:window-width="3066"
     inkscape:window-height="1689"
     inkscape:window-x="134"
     inkscape:window-y="55"
     inkscape:window-maximized="1"
     units="cm" />
  <metadata
     id="metadata5">
    <rdf:RDF>
      <cc:Work
         rdf:about="">
        <dc:format>image/svg+xml</dc:format>
        <dc:type
           rdf:resource="http://purl.org/dc/dcmitype/StillImage" />
        <dc:title></dc:title>
      </cc:Work>
    </rdf:RDF>
  </metadata>
  <g
     inkscape:label="Ebene 1"
     inkscape:groupmode="layer"
     id="layer1"
     transform="translate(0,-282.18)">
    <g
       id="g1752"
       transform="translate(15.998472,-16.069027)">
      <path
         style="fill:#000000;fill-opacity:1;stroke-width:0.01582938"
         d="m -15.172178,305.30717 v -0.24535 h 0.126635 0.126635 v -0.25327 -0.25327 h 0.245356 0.245354 v -0.11872 -0.11872 h 0.245357 0.245355 v -0.11872 -0.11872 h 0.126636 0.126634 v -0.25327 -0.25327 h -0.490711 -0.490711 v -0.61735 -0.61735 h 0.118721 0.118719 v -0.73606 -0.73607 h 0.118721 0.11872 v -0.13455 -0.13455 h 0.126636 0.126635 v -0.11081 -0.1108 h 0.126636 0.126634 v -0.12664 -0.12663 h 0.126636 0.126635 v -0.12664 -0.12663 h 0.601516 0.601517 v 0.12663 0.12664 h 0.13455 0.13455 v 0.12663 0.12664 h 0.11872 0.118721 v 0.24535 0.24536 h 0.126634 0.126636 v 0.85479 0.85478 h 0.126635 0.126635 v 0.49863 0.49863 h -0.498626 -0.498626 v 0.25327 0.25327 h 0.126635 0.126636 v 0.11872 0.11872 h 0.245355 0.245356 v 0.11872 0.11872 h 0.25327 0.25327 v 0.25327 0.25327 h 0.11872 0.118721 v 0.24535 0.24536 h -2.224029 -2.224029 z m 2.453555,-0.87061 v -0.11872 h 0.126635 0.126636 v -0.37199 -0.37199 h -0.126636 -0.126635 v -0.12664 -0.12663 h 0.126635 0.126636 v -0.11872 -0.11873 h 0.126634 0.126635 v -0.25327 -0.25327 h 0.126635 0.126636 v -0.24535 -0.24536 h 0.11872 0.118721 v -0.24535 -0.24536 h -0.118721 -0.11872 v -0.11872 -0.11872 h -0.245356 -0.245355 v -0.12663 -0.12664 h -0.364076 -0.364077 v -0.12663 -0.12664 h -0.126634 -0.126635 v 0.12664 0.12663 h -0.126635 -0.126636 v 0.12664 0.12663 h -0.126634 -0.126636 v 0.11872 0.11872 h -0.126635 -0.126636 v 0.24536 0.24535 h 0.126636 0.126635 v 0.24536 0.24535 h 0.126636 0.126634 v 0.24536 0.24536 h 0.126636 0.126635 v 0.12663 0.12664 h 0.126635 0.126634 v 0.12663 0.12664 h -0.126634 -0.126635 v 0.37199 0.37199 h 0.126635 0.126634 v 0.11872 0.11872 h 0.229527 0.229526 z m -0.459053,-0.73607 v -0.12663 h 0.229527 0.229526 v 0.12663 0.12664 h -0.229526 -0.229527 z m -0.01583,-0.73607 v -0.11872 h -0.118721 -0.11872 v -0.12663 -0.12664 h 0.11872 0.118721 v 0.12664 0.12663 h 0.245356 0.245355 v -0.12663 -0.12664 h 0.11872 0.118721 v 0.12664 0.12663 h -0.118721 -0.11872 v 0.11872 0.11872 h -0.245355 -0.245356 z m -0.237441,-1.00516 v -0.12664 h 0.11872 0.118721 v 0.12664 0.12663 h -0.118721 -0.11872 z m 0.728152,0 v -0.12664 h 0.11872 0.118721 v 0.12664 0.12663 h -0.118721 -0.11872 z m 1.978673,0.3799 v -0.36407 h 0.371991 0.3719899 v 0.36407 0.36408 h -0.3719899 -0.371991 z m 0,-1.2426 v -0.37199 h 0.126635 0.126636 v -0.12664 -0.12663 h 0.245354 0.2453559 v -0.12664 -0.12663 h 0.126635 0.1266351 v -0.23745 -0.23744 h -0.1266351 -0.126635 v -0.12663 -0.12664 h -0.2453559 -0.245354 v 0.12664 0.12663 h -0.126636 -0.126635 v 0.11872 0.11872 h -0.371991 -0.37199 v -0.24535 -0.24536 h 0.126636 0.126635 v -0.12663 -0.12664 h 0.126634 0.126635 v -0.12663 -0.12664 h 0.118721 0.11872 v -0.11872 -0.11872 h 0.498625 0.498626 v 0.11872 0.11872 h 0.1266349 0.1266358 v 0.12664 0.12663 h 0.126635 0.1266349 v 0.12664 0.12663 h 0.1028908 0.1028917 v 0.36408 0.36408 h -0.1028917 -0.1028908 v 0.12663 0.12664 h -0.1266349 -0.126635 v 0.12663 0.12664 H -9.6002341 -9.726869 v 0.12663 0.12664 h -0.1266351 -0.126635 v 0.24535 0.24536 h -0.3719899 -0.371991 z"
         id="path1967"
         inkscape:connector-curvature="0" />
    </g>
  </g>
</svg>
