<?xml version="1.0" encoding="UTF-8" standalone="no"?>
<!-- Created with Inkscape (http://www.inkscape.org/) -->

<svg
   xmlns:dc="http://purl.org/dc/elements/1.1/"
   xmlns:cc="http://creativecommons.org/ns#"
   xmlns:rdf="http://www.w3.org/1999/02/22-rdf-syntax-ns#"
   xmlns:svg="http://www.w3.org/2000/svg"
   xmlns="http://www.w3.org/2000/svg"
   xmlns:sodipodi="http://sodipodi.sourceforge.net/DTD/sodipodi-0.dtd"
   xmlns:inkscape="http://www.inkscape.org/namespaces/inkscape"
   width="7.8000002cm"
   height="7.8000002cm"
   viewBox="0 0 7.7999997 7.8000002"
   version="1.1"
   id="svg8"
   inkscape:version="0.92.2 (30a58d1, 2017-08-07)"
   sodipodi:docname="who_smile.svg">
  <defs
     id="defs2" />
  <sodipodi:namedview
     id="base"
     pagecolor="#ffffff"
     bordercolor="#666666"
     borderopacity="1.0"
     inkscape:pageopacity="0"
     inkscape:pageshadow="2"
     inkscape:zoom="1.4142136"
     inkscape:cx="231.37312"
     inkscape:cy="11.002161"
     inkscape:document-units="cm"
     inkscape:current-layer="g1752"
     showgrid="true"
     scale-x="1"
     showguides="true"
     borderlayer="false"
     showborder="true"
     inkscape:showpageshadow="true"
     inkscape:window-width="3066"
     inkscape:window-height="1689"
     inkscape:window-x="134"
     inkscape:window-y="55"
     inkscape:window-maximized="1"
     units="cm" />
  <metadata
     id="metadata5">
    <rdf:RDF>
      <cc:Work
         rdf:about="">
        <dc:format>image/svg+xml</dc:format>
        <dc:type
           rdf:resource="http://purl.org/dc/dcmitype/StillImage" />
        <dc:title></dc:title>
      </cc:Work>
    </rdf:RDF>
  </metadata>
  <g
     inkscape:label="Ebene 1"
     inkscape:groupmode="layer"
     id="layer1"
     transform="translate(0,-282.18)">
    <g
       id="g1752"
       transform="translate(15.998472,-16.069027)">
      <path
         style="fill:#000000;fill-opacity:1;stroke-width:0.01626224"
         d="m -15.30314,305.55143 v -0.25206 h 0.130098 0.130098 v -0.2602 -0.26019 h 0.252064 0.252065 v -0.12197 -0.12196 h 0.252065 0.252065 v -0.12197 -0.12197 h 0.130098 0.130097 v -0.3903 -0.39029 h -0.130097 -0.130098 v -0.25206 -0.25207 h -0.130098 -0.130099 v -0.38216 -0.38216 h -0.121966 -0.121967 v -0.12197 -0.12196 h -0.121967 -0.121967 v -0.3903 -0.39029 h 0.121967 0.121967 v -0.23581 -0.2358 h 0.121967 0.121966 v -0.1301 -0.1301 h 0.260197 0.260195 v -0.1301 -0.13009 h 0.130098 0.130099 v -0.1301 -0.1301 h 0.487867 0.487867 v 0.1301 0.1301 h 0.138228 0.13823 v 0.13009 0.1301 h 0.252064 0.252065 v 0.11384 0.11384 h 0.130098 0.130098 v 0.26019 0.2602 h 0.130098 0.130097 v 0.37403 0.37403 h -0.130097 -0.130098 v 0.1301 0.1301 h -0.130098 -0.130098 v 0.38216 0.38216 h -0.121967 -0.121966 v 0.25207 0.25206 h -0.130098 -0.130098 v 0.39029 0.3903 h 0.130098 0.130098 v 0.12197 0.12197 h 0.252064 0.252065 v 0.12196 0.12197 h 0.260195 0.260196 v 0.26019 0.2602 h 0.121967 0.121967 v 0.25206 0.25207 h -2.284844 -2.284845 z m 2.520647,-0.89442 v -0.12196 h 0.130098 0.130098 v -0.38217 -0.38216 h -0.130098 -0.130098 v -0.1301 -0.1301 h 0.130098 0.130098 v -0.12197 -0.12196 h 0.130098 0.130098 v -0.2602 -0.26019 h 0.130098 0.130098 v -0.25207 -0.25206 h 0.121966 0.121967 V 301.99 301.73794 h -0.121967 -0.121966 v -0.12197 -0.12196 h -0.252065 -0.252065 v -0.1301 -0.1301 h -0.374031 -0.374032 v -0.1301 -0.1301 h -0.130098 -0.130097 v 0.1301 0.1301 h -0.130099 -0.130098 v 0.1301 0.1301 h -0.130097 -0.130098 v 0.12196 0.12197 h -0.130098 -0.130099 v 0.25206 0.25207 h 0.130099 0.130098 v 0.25206 0.25207 h 0.130098 0.130097 v 0.25206 0.25207 h 0.130098 0.130099 v 0.1301 0.13009 h 0.130097 0.130098 v 0.1301 0.1301 h -0.130098 -0.130097 v 0.38216 0.38217 h 0.130097 0.130098 v 0.12196 0.12197 h 0.235803 0.235802 z m -0.471605,-0.7562 v -0.13009 h 0.235803 0.235802 v 0.13009 0.1301 h -0.235802 -0.235803 z m -0.01626,-0.75619 v -0.12197 h -0.121967 -0.121967 v -0.1301 -0.13009 h 0.121967 0.121967 v 0.13009 0.1301 h 0.252064 0.252065 v -0.1301 -0.13009 h 0.121967 0.121967 v 0.13009 0.1301 h -0.121967 -0.121967 v 0.12197 0.12197 h -0.252065 -0.252064 z m -0.243934,-1.03265 v -0.1301 h 0.121967 0.121967 v 0.1301 0.1301 h -0.121967 -0.121967 z m 0.748063,0 v -0.1301 h 0.121967 0.121967 v 0.1301 0.1301 h -0.121967 -0.121967 z m 2.03278,0.14636 v -0.37403 h 0.382162 0.3821635 v 0.37403 0.37403 h -0.3821635 -0.382162 z m 0,-1.27659 v -0.38216 h 0.130098 0.130098 v -0.1301 -0.13009 h 0.252064 0.2520655 v -0.1301 -0.1301 h 0.130098 0.130098 v -0.24393 -0.24394 h -0.130098 -0.130098 v -0.13009 -0.1301 h -0.2520655 -0.252064 v 0.1301 0.13009 h -0.130098 -0.130098 v 0.12197 0.12197 h -0.382163 -0.382162 v -0.25207 -0.25206 h 0.130098 0.130097 v -0.1301 -0.1301 h 0.130098 0.130098 v -0.1301 -0.1301 h 0.121967 0.121967 v -0.12196 -0.12197 h 0.51226 0.5122615 v 0.12197 0.12196 h 0.130098 0.130098 v 0.1301 0.1301 h 0.130098 0.130098 v 0.1301 0.1301 h 0.1057042 0.1057046 v 0.37403 0.37403 h -0.1057046 -0.1057042 v 0.1301 0.1301 h -0.130098 -0.130098 v 0.13009 0.1301 h -0.130098 -0.130098 v 0.1301 0.1301 h -0.130098 -0.130098 v 0.25206 0.25207 h -0.3821635 -0.382162 z"
         id="path1935"
         inkscape:connector-curvature="0" />
    </g>
  </g>
</svg>
