<?xml version="1.0" encoding="UTF-8" standalone="no"?>
<!-- Created with Inkscape (http://www.inkscape.org/) -->

<svg
   xmlns:dc="http://purl.org/dc/elements/1.1/"
   xmlns:cc="http://creativecommons.org/ns#"
   xmlns:rdf="http://www.w3.org/1999/02/22-rdf-syntax-ns#"
   xmlns:svg="http://www.w3.org/2000/svg"
   xmlns="http://www.w3.org/2000/svg"
   xmlns:sodipodi="http://sodipodi.sourceforge.net/DTD/sodipodi-0.dtd"
   xmlns:inkscape="http://www.inkscape.org/namespaces/inkscape"
   width="7.8000002cm"
   height="7.8000002cm"
   viewBox="0 0 7.7999997 7.8000002"
   version="1.1"
   id="svg8"
   inkscape:version="0.92.2 (30a58d1, 2017-08-07)"
   sodipodi:docname="who_lucky.svg">
  <defs
     id="defs2" />
  <sodipodi:namedview
     id="base"
     pagecolor="#ffffff"
     bordercolor="#666666"
     borderopacity="1.0"
     inkscape:pageopacity="0"
     inkscape:pageshadow="2"
     inkscape:zoom="1.4142136"
     inkscape:cx="231.37312"
     inkscape:cy="11.002161"
     inkscape:document-units="cm"
     inkscape:current-layer="g1752"
     showgrid="true"
     scale-x="1"
     showguides="true"
     borderlayer="false"
     showborder="true"
     inkscape:showpageshadow="true"
     inkscape:window-width="3066"
     inkscape:window-height="1689"
     inkscape:window-x="134"
     inkscape:window-y="55"
     inkscape:window-maximized="1"
     units="cm" />
  <metadata
     id="metadata5">
    <rdf:RDF>
      <cc:Work
         rdf:about="">
        <dc:format>image/svg+xml</dc:format>
        <dc:type
           rdf:resource="http://purl.org/dc/dcmitype/StillImage" />
        <dc:title></dc:title>
      </cc:Work>
    </rdf:RDF>
  </metadata>
  <g
     inkscape:label="Ebene 1"
     inkscape:groupmode="layer"
     id="layer1"
     transform="translate(0,-282.18)">
    <g
       id="g1752"
       transform="translate(15.998472,-16.069027)">
      <path
         style="fill:#080808;fill-opacity:1;stroke-width:0.01629411"
         d="M -15.258672,305.28956 V 305.037 h 0.130352 0.130353 v -0.26071 -0.2607 h 0.25256 0.252558 v -0.1222 -0.12221 h 0.25256 0.252558 v -0.12221 -0.1222 h 0.130354 0.130352 v -0.39106 -0.39106 h -0.130352 -0.130354 v -0.25256 -0.25256 h -0.130353 -0.130353 v -0.38291 -0.38292 h -0.122205 -0.122207 v -0.25255 -0.25256 h -0.122206 -0.122205 v -0.2607 -0.26071 h 0.122205 0.122206 v -0.11406 -0.11406 h 0.122207 0.122205 v -0.13035 -0.13036 h -0.130352 -0.130353 v -0.13035 -0.13036 h 0.260705 0.260706 v -0.12219 -0.12221 h 0.260706 0.260706 v -0.13035 -0.13035 h 0.366617 0.366619 v 0.13035 0.13035 h 0.260705 0.260706 v 0.13036 0.13034 h 0.130353 0.130353 v 0.11406 0.11406 h 0.122205 0.122207 v 0.13851 0.13849 h 0.130353 0.130353 v 0.25256 0.25256 h 0.130352 0.130353 v 0.24441 0.24441 h -0.130353 -0.130352 v 0.13035 0.13035 h -0.130353 -0.130353 v 0.38292 0.38291 h -0.122207 -0.122205 v 0.25256 0.25256 h -0.130353 -0.130353 v 0.39106 0.39106 h 0.130353 0.130353 v 0.1222 0.12221 h 0.252558 0.25256 v 0.12221 0.1222 h 0.260705 0.260707 v 0.2607 0.26071 h 0.122205 0.122206 v 0.25256 0.25256 h -2.289324 -2.289323 z m 2.525589,-0.89617 v -0.12221 h 0.130352 0.130353 v -0.38291 -0.38291 h -0.130353 -0.130352 v -0.13036 -0.13035 h 0.130352 0.130353 v -0.12221 -0.1222 h 0.130353 0.130353 v -0.26071 -0.26071 h 0.130353 0.130353 v -0.25255 -0.25257 h 0.122205 0.122207 v -0.27699 -0.277 h -0.122207 -0.122205 v -0.0978 -0.0978 h -0.25256 -0.252558 v -0.13036 -0.13035 h -0.130352 -0.130353 v -0.13035 -0.13036 h -0.11406 -0.114058 v -0.12219 -0.12222 h -0.130353 -0.130354 v 0.12222 0.12219 h -0.130353 -0.130352 v -0.13034 -0.13036 h -0.130353 -0.130353 v -0.1222 -0.12222 h -0.130352 -0.130354 v 0.12222 0.1222 h 0.130354 0.130352 v 0.2607 0.26071 h -0.130352 -0.130354 v 0.25256 0.25256 h -0.130353 -0.130353 v 0.25256 0.25255 h 0.130353 0.130353 v 0.25257 0.25255 h 0.130354 0.130352 v 0.25256 0.25257 h 0.130353 0.130353 v 0.13035 0.13035 h 0.130352 0.130353 v 0.13035 0.13036 h -0.130353 -0.130352 v 0.38291 0.38291 h 0.130352 0.130353 v 0.12221 0.1222 h 0.236265 0.236266 z m -0.472531,-0.75768 v -0.13035 h 0.236265 0.236266 v 0.13035 0.13035 h -0.236266 -0.236265 z m -0.01629,-0.75768 v -0.12221 h 0.252558 0.25256 v -0.13035 -0.13036 h 0.122205 0.122206 v 0.13036 0.13035 h -0.122206 -0.122205 v 0.12221 0.12221 h -0.25256 -0.252558 z m -0.244412,-1.03468 V 301.713 h 0.122205 0.122207 v 0.13035 0.13035 h -0.122207 -0.122205 z m 0.74953,0 V 301.713 h 0.122205 0.122206 v 0.13035 0.13035 h -0.122206 -0.122205 z m -0.488825,-1.01023 v -0.13036 h 0.130354 0.130353 v 0.13036 0.13035 h -0.130353 -0.130354 z m 2.525589,1.35241 v -0.37476 h 0.382912 0.3829117 v 0.37476 0.37476 h -0.3829117 -0.382912 z m 0,-1.27909 v -0.38291 h 0.130352 0.130354 v -0.13035 -0.13035 h 0.252559 0.2525587 v -0.13036 -0.13035 h 0.1303532 0.1303524 v -0.24441 -0.24442 h -0.1303524 -0.1303532 v -0.13035 -0.13035 h -0.2525587 -0.252559 v 0.13035 0.13035 h -0.130354 -0.130352 v 0.12221 0.12221 h -0.382911 -0.382913 v -0.25256 -0.25256 h 0.130353 0.130353 v -0.13036 -0.13035 h 0.130354 0.130353 v -0.13035 -0.13036 h 0.122205 0.122206 v -0.1222 -0.1222 h 0.513265 0.5132643 v 0.1222 0.1222 h 0.1303532 0.1303532 v 0.13036 0.13035 h 0.1303533 0.1303521 v 0.13035 0.13036 h 0.1059094 0.1059094 v 0.37476 0.37477 h -0.1059094 -0.1059094 v 0.13035 0.13036 H -9.262436 -9.3927893 v 0.13035 0.13035 h -0.1303532 -0.1303532 v 0.13036 0.13035 h -0.1303524 -0.1303532 v 0.25255 0.25257 h -0.3829117 -0.382912 z"
         id="path1903"
         inkscape:connector-curvature="0" />
    </g>
  </g>
</svg>
