<?xml version="1.0" encoding="UTF-8" standalone="no"?>
<!-- Created with Inkscape (http://www.inkscape.org/) -->

<svg
   xmlns:dc="http://purl.org/dc/elements/1.1/"
   xmlns:cc="http://creativecommons.org/ns#"
   xmlns:rdf="http://www.w3.org/1999/02/22-rdf-syntax-ns#"
   xmlns:svg="http://www.w3.org/2000/svg"
   xmlns="http://www.w3.org/2000/svg"
   xmlns:sodipodi="http://sodipodi.sourceforge.net/DTD/sodipodi-0.dtd"
   xmlns:inkscape="http://www.inkscape.org/namespaces/inkscape"
   width="7.8000002cm"
   height="7.8000002cm"
   viewBox="0 0 7.7999997 7.8000002"
   version="1.1"
   id="svg8"
   inkscape:version="0.92.2 (30a58d1, 2017-08-07)"
   sodipodi:docname="who_blank.svg">
  <defs
     id="defs2" />
  <sodipodi:namedview
     id="base"
     pagecolor="#ffffff"
     bordercolor="#666666"
     borderopacity="1.0"
     inkscape:pageopacity="0"
     inkscape:pageshadow="2"
     inkscape:zoom="1.4142136"
     inkscape:cx="231.37312"
     inkscape:cy="11.002161"
     inkscape:document-units="cm"
     inkscape:current-layer="g1752"
     showgrid="true"
     scale-x="1"
     showguides="true"
     borderlayer="false"
     showborder="true"
     inkscape:showpageshadow="true"
     inkscape:window-width="3066"
     inkscape:window-height="1689"
     inkscape:window-x="134"
     inkscape:window-y="55"
     inkscape:window-maximized="1"
     units="cm" />
  <metadata
     id="metadata5">
    <rdf:RDF>
      <cc:Work
         rdf:about="">
        <dc:format>image/svg+xml</dc:format>
        <dc:type
           rdf:resource="http://purl.org/dc/dcmitype/StillImage" />
        <dc:title></dc:title>
      </cc:Work>
    </rdf:RDF>
  </metadata>
  <g
     inkscape:label="Ebene 1"
     inkscape:groupmode="layer"
     id="layer1"
     transform="translate(0,-282.18)">
    <g
       id="g1752"
       transform="translate(15.998472,-16.069027)">
      <path
         style="fill:#000000;fill-opacity:1;stroke-width:0.01605047"
         d="m -15.228304,305.52823 v -0.24878 h 0.128403 0.128404 v -0.2568 -0.25681 h 0.248783 0.248782 v -0.12038 -0.12038 h 0.248783 0.248782 v -0.12038 -0.12038 h 0.128404 0.128403 v -0.38521 -0.38521 h -0.128403 -0.128404 v -0.24878 -0.24879 h -0.128404 -0.128404 v -0.37718 -0.37719 h -0.120378 -0.120379 v -0.37718 -0.37719 h 0.120379 0.120378 v -0.24878 -0.24878 h 0.128404 0.128404 v -0.1284 -0.12841 h 0.128404 0.128403 v -0.11235 -0.11236 h 0.128404 0.128404 v -0.1284 -0.1284 h 0.48954 0.489539 v 0.1284 0.1284 h 0.128404 0.128403 v 0.11236 0.11235 h 0.128404 0.128404 v 0.12841 0.1284 h 0.120378 0.120379 v 0.24878 0.24878 h 0.128404 0.128404 v 0.37719 0.37718 h -0.128404 -0.128404 v 0.37719 0.37718 h -0.120379 -0.120378 v 0.24879 0.24878 h -0.128404 -0.128404 v 0.38521 0.38521 h 0.128404 0.128404 v 0.12038 0.12038 h 0.248782 0.248783 v 0.12038 0.12038 h 0.256807 0.256808 v 0.25681 0.2568 h 0.120378 0.120379 v 0.24878 0.24879 h -2.255091 -2.255092 z m 2.487823,-0.88277 v -0.12038 h 0.128404 0.128404 v -0.37718 -0.37719 h -0.128404 -0.128404 v -0.1284 -0.12841 h 0.128404 0.128404 v -0.12037 -0.12038 h 0.128404 0.128403 v -0.25682 -0.2568 h 0.128404 0.128404 v -0.24878 -0.24879 h 0.120378 0.120379 v -0.37718 -0.37719 h -0.120379 -0.120378 v -0.24878 -0.24878 h -0.128404 -0.128404 v -0.1284 -0.12841 h -0.128403 -0.128404 v -0.11235 -0.11236 h -0.489539 -0.48954 v 0.11236 0.11235 h -0.128404 -0.128404 v 0.12841 0.1284 h -0.128403 -0.128404 v 0.24878 0.24878 h -0.128404 -0.128404 v 0.37719 0.37718 h 0.128404 0.128404 v 0.24879 0.24878 h 0.128404 0.128403 v 0.2568 0.25682 h 0.128404 0.128404 v 0.12038 0.12037 h 0.128404 0.128404 v 0.12841 0.1284 h -0.128404 -0.128404 v 0.37719 0.37718 h 0.128404 0.128404 v 0.12038 0.12038 h 0.232732 0.232731 z m -0.465463,-0.74635 v -0.1284 h 0.232732 0.232731 v 0.1284 0.12841 h -0.232731 -0.232732 z m 2.487823,-1.60504 v -0.36916 h 0.377186 0.3771855 v 0.36916 0.36916 h -0.3771855 -0.377186 z m 0,-1.25997 v -0.37718 h 0.128403 0.128404 v -0.12841 -0.1284 h 0.248783 0.2487815 v -0.1284 -0.12841 h 0.128404 0.128404 v -0.24075 -0.24076 h -0.128404 -0.128404 v -0.1284 -0.12841 h -0.2487815 -0.248783 v 0.12841 0.1284 h -0.128404 -0.128403 v 0.12038 0.12038 h -0.377186 -0.377186 v -0.24879 -0.24878 h 0.128404 0.128403 v -0.1284 -0.1284 h 0.128404 0.128404 v -0.12841 -0.12841 h 0.120378 0.120379 v -0.12037 -0.12038 h 0.50559 0.5055895 v 0.12038 0.12037 h 0.128403 0.128404 v 0.12841 0.12841 h 0.128404 0.128404 v 0.1284 0.1284 h 0.104328 0.104328 v 0.36916 0.36916 h -0.104328 -0.104328 v 0.12841 0.1284 h -0.128404 -0.128404 v 0.1284 0.12841 h -0.128404 -0.128403 v 0.1284 0.1284 h -0.128404 -0.128404 v 0.24879 0.24878 h -0.3771855 -0.377186 z"
         id="path1871"
         inkscape:connector-curvature="0" />
    </g>
  </g>
</svg>
