<?xml version="1.0" encoding="UTF-8" standalone="no"?>
<!-- Created with Inkscape (http://www.inkscape.org/) -->

<svg
   xmlns:dc="http://purl.org/dc/elements/1.1/"
   xmlns:cc="http://creativecommons.org/ns#"
   xmlns:rdf="http://www.w3.org/1999/02/22-rdf-syntax-ns#"
   xmlns:svg="http://www.w3.org/2000/svg"
   xmlns="http://www.w3.org/2000/svg"
   xmlns:sodipodi="http://sodipodi.sourceforge.net/DTD/sodipodi-0.dtd"
   xmlns:inkscape="http://www.inkscape.org/namespaces/inkscape"
   width="7.8000002cm"
   height="7.8000002cm"
   viewBox="0 0 7.7999997 7.8000002"
   version="1.1"
   id="svg8"
   inkscape:version="0.92.2 (30a58d1, 2017-08-07)"
   sodipodi:docname="who_beard.svg">
  <defs
     id="defs2" />
  <sodipodi:namedview
     id="base"
     pagecolor="#ffffff"
     bordercolor="#666666"
     borderopacity="1.0"
     inkscape:pageopacity="0"
     inkscape:pageshadow="2"
     inkscape:zoom="1.4142136"
     inkscape:cx="231.37312"
     inkscape:cy="11.002161"
     inkscape:document-units="cm"
     inkscape:current-layer="g1752"
     showgrid="true"
     scale-x="1"
     showguides="true"
     borderlayer="false"
     showborder="true"
     inkscape:showpageshadow="true"
     inkscape:window-width="3066"
     inkscape:window-height="1689"
     inkscape:window-x="134"
     inkscape:window-y="55"
     inkscape:window-maximized="1"
     units="cm" />
  <metadata
     id="metadata5">
    <rdf:RDF>
      <cc:Work
         rdf:about="">
        <dc:format>image/svg+xml</dc:format>
        <dc:type
           rdf:resource="http://purl.org/dc/dcmitype/StillImage" />
        <dc:title></dc:title>
      </cc:Work>
    </rdf:RDF>
  </metadata>
  <g
     inkscape:label="Ebene 1"
     inkscape:groupmode="layer"
     id="layer1"
     transform="translate(0,-282.18)">
    <g
       id="g1752"
       transform="translate(15.998472,-16.069027)">
      <path
         style="fill:#000000;fill-opacity:1;stroke-width:0.01538824"
         d="m -14.858817,305.41767 v -0.23852 h 0.123105 0.123107 v -0.24621 -0.24621 h 0.238517 0.238518 v -0.11541 -0.11541 h 0.238518 0.238518 v -0.11542 -0.11541 h 0.123106 0.123105 v -0.24621 -0.24621 h -0.123105 -0.123106 v -0.36162 -0.36163 h -0.123107 -0.123105 v -0.36163 -0.36162 h -0.115412 -0.115412 v -0.36162 -0.36163 h 0.115412 0.115412 v -0.23851 -0.23852 h 0.123105 0.123107 v -0.12311 -0.1231 h 0.123106 0.123105 v -0.10771 -0.10773 h 0.123107 0.123106 v -0.1231 -0.1231 h 0.469341 0.469341 v 0.1231 0.1231 h 0.123107 0.123105 v 0.10773 0.10771 h 0.123107 0.123105 v 0.1231 0.12311 h 0.115412 0.115411 v 0.23852 0.23851 h 0.123107 0.123106 v 0.36163 0.36162 h -0.123106 -0.123107 v 0.36162 0.36163 h -0.115411 -0.115412 v 0.36163 0.36162 h -0.123105 -0.123107 v 0.24621 0.24621 h 0.123107 0.123105 v 0.11541 0.11542 h 0.238518 0.238518 v 0.11541 0.11541 h 0.246212 0.246211 v 0.24621 0.24621 h 0.115411 0.115413 v 0.23852 0.23852 h -2.162048 -2.162048 z m 2.385178,-0.84635 v -0.11541 h 0.123105 0.123106 v -0.23853 -0.23851 h -0.469341 -0.469341 v 0.23851 0.23853 h 0.123105 0.123107 v 0.11541 0.11541 h 0.223129 0.22313 z m 0.246211,-1.43881 v -0.1231 h -0.123106 -0.123105 v -0.12311 -0.1231 h -0.22313 -0.223129 v 0.1231 0.12311 h -0.123107 -0.123105 v 0.1231 0.12311 h 0.469341 0.469341 z m -0.938682,-0.49242 v -0.1231 h 0.469341 0.469341 v 0.1231 0.12311 h 0.246212 0.246212 v -0.23852 -0.23852 h 0.115412 0.115411 v -0.36162 -0.36163 h -0.115411 -0.115412 v -0.23851 -0.23852 h -0.123105 -0.123107 v -0.12311 -0.1231 h -0.123105 -0.123107 v -0.10771 -0.10773 h -0.469341 -0.469341 v 0.10773 0.10771 h -0.123106 -0.123107 v 0.1231 0.12311 h -0.123105 -0.123106 v 0.23852 0.23851 h -0.123107 -0.123105 v 0.36163 0.36162 h 0.123105 0.123107 v 0.23852 0.23852 h 0.246211 0.246213 z m 0,-0.47703 v -0.12311 h 0.115411 0.115412 v 0.12311 0.1231 h -0.115412 -0.115411 z m 0.707858,0 v -0.12311 h 0.115412 0.115412 v 0.12311 0.1231 h -0.115412 -0.115412 z m 1.923531,-0.0616 v -0.35393 h 0.361623 0.3616241 v 0.35393 0.35393 h -0.3616241 -0.361623 z m 0,-1.20798 v -0.36162 h 0.123106 0.123105 v -0.1231 -0.12311 h 0.238519 0.2385171 v -0.12311 -0.1231 h 0.1231068 0.1231053 v -0.23083 -0.23082 h -0.1231053 -0.1231068 v -0.12311 -0.1231 h -0.2385171 -0.238519 v 0.1231 0.12311 h -0.123105 -0.123106 v 0.11541 0.11541 h -0.361624 -0.361623 v -0.23851 -0.23852 h 0.123105 0.123107 v -0.12311 -0.1231 h 0.123105 0.123106 v -0.12311 -0.1231 h 0.115411 0.115413 v -0.11542 -0.11541 h 0.48473 0.4847292 v 0.11541 0.11542 h 0.1231064 0.1231054 v 0.1231 0.12311 h 0.1231064 0.1231053 v 0.1231 0.12311 h 0.1000266 0.1000266 v 0.35393 0.35393 h -0.1000266 -0.1000266 v 0.1231 0.12311 H -9.1959436 -9.31905 v 0.12311 0.1231 h -0.1231054 -0.1231064 v 0.12311 0.12311 h -0.1231053 -0.1231068 v 0.23851 0.23852 h -0.3616241 -0.361623 z"
         id="path1839"
         inkscape:connector-curvature="0" />
    </g>
  </g>
</svg>
